<svg xmlns="http://www.w3.org/2000/svg" xmlns:xlink="http://www.w3.org/1999/xlink" viewBox="0 124.375 1300 731.25"><defs><radialGradient xlink:href="#a" id="n" cx="208.091" cy="599.814" r="193.949" fx="208.091" fy="599.814" gradientUnits="userSpaceOnUse"/><radialGradient xlink:href="#b" id="m" cx="208.091" cy="606.757" r="193.949" fx="208.091" fy="606.757" gradientTransform="matrix(.99333 0 0 .98075 1.388 11.545)" gradientUnits="userSpaceOnUse"/><radialGradient xlink:href="#c" id="l" cx="208.091" cy="610.083" r="193.949" fx="208.091" fy="610.083" gradientUnits="userSpaceOnUse"/><radialGradient xlink:href="#d" id="k" cx="208.091" cy="604.944" r="193.949" fx="208.091" fy="604.944" gradientTransform="matrix(1.0733 0 0 1.06505 -15.254 -39.017)" gradientUnits="userSpaceOnUse"/><radialGradient xlink:href="#d" id="j" cx="208.091" cy="599.814" r="193.949" fx="208.091" fy="599.814" gradientUnits="userSpaceOnUse"/><radialGradient xlink:href="#e" id="i" cx="208.091" cy="601.782" r="193.949" fx="208.091" fy="601.782" gradientTransform="matrix(.9761 0 0 .98006 4.975 11.887)" gradientUnits="userSpaceOnUse"/><radialGradient xlink:href="#f" id="h" cx="208.091" cy="603.056" r="193.949" fx="208.091" fy="603.056" gradientTransform="matrix(.9656 0 0 .9602 7.16 24)" gradientUnits="userSpaceOnUse"/><linearGradient id="e"><stop offset="0" style="stop-color:#9e0511;stop-opacity:1"/><stop offset=".684" style="stop-color:#b42a3e;stop-opacity:1"/><stop offset=".829" style="stop-color:#8e0107;stop-opacity:1"/><stop offset="1" style="stop-color:#190004;stop-opacity:1"/></linearGradient><linearGradient id="f"><stop offset="0" style="stop-color:#9e0511;stop-opacity:1"/><stop offset=".655" style="stop-color:#b42a3e;stop-opacity:1"/><stop offset=".806" style="stop-color:#8e0107;stop-opacity:1"/><stop offset="1" style="stop-color:#190004;stop-opacity:1"/></linearGradient><linearGradient id="d"><stop offset="0" style="stop-color:#9e0511;stop-opacity:1"/><stop offset=".735" style="stop-color:#b42a3e;stop-opacity:1"/><stop offset=".859" style="stop-color:#8e0107;stop-opacity:1"/><stop offset="1" style="stop-color:#190004;stop-opacity:1"/></linearGradient><linearGradient id="c"><stop offset="0" style="stop-color:#cb4d81;stop-opacity:1"/><stop offset=".646" style="stop-color:#c74d7d;stop-opacity:1"/><stop offset=".912" style="stop-color:#96020a;stop-opacity:1"/><stop offset="1" style="stop-color:#7e0002;stop-opacity:1"/></linearGradient><linearGradient id="b"><stop offset="0" style="stop-color:#cb4d81;stop-opacity:1"/><stop offset=".751" style="stop-color:#c25281;stop-opacity:1"/><stop offset=".876" style="stop-color:#c01b46;stop-opacity:1"/><stop offset="1" style="stop-color:#a00818;stop-opacity:1"/></linearGradient><linearGradient id="a"><stop offset="0" style="stop-color:#043e7d;stop-opacity:1"/><stop offset="1" style="stop-color:#021b36;stop-opacity:1"/></linearGradient><clipPath id="g" clipPathUnits="userSpaceOnUse"><path d="M1214.659-58.686h1598.865v1205H1214.659z" style="fill:none;stroke:#000;stroke-width:2.46165705;stroke-miterlimit:4;stroke-opacity:1;stroke-dasharray:none"/></clipPath></defs><g clip-path="url(#g)" transform="translate(-986.31 48.614) scale(.81246)"><path d="M402.04 599.814c0 107.115-86.833 193.95-193.949 193.95-107.115 0-193.949-86.835-193.949-193.95s86.834-193.95 193.95-193.95c107.115 0 193.949 86.835 193.949 193.95z" style="fill:url(#h);fill-opacity:1;stroke:none" transform="translate(858.809 -2786.234) scale(5.5518)"/><path d="M402.04 599.814c0 107.115-86.833 193.95-193.949 193.95-107.115 0-193.949-86.835-193.949-193.95s86.834-193.95 193.95-193.95c107.115 0 193.949 86.835 193.949 193.95z" style="fill:url(#i);fill-opacity:1;stroke:none" transform="matrix(4.31222 0 0 4.31222 1116.756 -2042.715)"/><path d="M402.04 599.814c0 107.115-86.833 193.95-193.949 193.95-107.115 0-193.949-86.835-193.949-193.95s86.834-193.95 193.95-193.95c107.115 0 193.949 86.835 193.949 193.95z" style="fill:url(#j);fill-opacity:1;stroke:none" transform="translate(1314.009 -1474.141) scale(3.3643)"/><path d="M402.04 599.814c0 107.115-86.833 193.95-193.949 193.95-107.115 0-193.949-86.835-193.949-193.95s86.834-193.95 193.95-193.95c107.115 0 193.949 86.835 193.949 193.95z" style="fill:url(#k);fill-opacity:1;stroke:none" transform="matrix(2.56222 0 0 2.56222 1480.916 -993.04)"/><path d="M402.04 599.814c0 107.115-86.833 193.95-193.949 193.95-107.115 0-193.949-86.835-193.949-193.95s86.834-193.95 193.95-193.95c107.115 0 193.949 86.835 193.949 193.95z" style="fill:url(#l);fill-opacity:1;stroke:none" transform="matrix(1.94764 0 0 1.94764 1608.805 -624.405)"/><path d="M402.04 599.814c0 107.115-86.833 193.95-193.949 193.95-107.115 0-193.949-86.835-193.949-193.95s86.834-193.95 193.95-193.95c107.115 0 193.949 86.835 193.949 193.95z" style="fill:url(#m);fill-opacity:1;stroke:none" transform="matrix(1.46847 0 0 1.46847 1708.516 -336.994)"/><path d="M402.04 599.814c0 107.115-86.833 193.95-193.949 193.95-107.115 0-193.949-86.835-193.949-193.95s86.834-193.95 193.95-193.95c107.115 0 193.949 86.835 193.949 193.95z" style="fill:url(#n);fill-opacity:1;stroke:none" transform="matrix(1.07264 0 0 1.07264 1790.885 -99.568)"/></g></svg>
