<?xml version="1.0" encoding="utf-8"?>
<!-- Generator: Adobe Illustrator 21.0.0, SVG Export Plug-In . SVG Version: 6.00 Build 0)  -->
<svg version="1.1" id="Layer_1" xmlns="http://www.w3.org/2000/svg" xmlns:xlink="http://www.w3.org/1999/xlink" x="0px" y="0px"
	 width="1400px" height="980px" viewBox="0 0 1400 980" style="enable-background:new 0 0 1400 980;" xml:space="preserve">
<style type="text/css">
	.st0{fill-rule:evenodd;clip-rule:evenodd;fill:#151515;}
	.st1{fill-rule:evenodd;clip-rule:evenodd;}
	.st2{fill-rule:evenodd;clip-rule:evenodd;fill:#090909;}
</style>
<g>
	<path class="st0" d="M851.4,187.9c6.1,2.7,16.6,0.2,18.3,23.1c1.2,16.2-2.1,23.4-3.5,37.9c-3.1,30.6,10.6,34.3,28.3,44
		c2.5,1.4,4.8,4,6.7,2.8c5.1-4.5-7.4-14-12.2-22.7c-7-12.7-1.6-17.3,1.3-29.1c2.9-11.6,3.6-36.1-4.7-46.8c-2.6-3.4-4-4.3-7-6.7
		c-1.4-1.1-1.4-1.4-2.6-2.5c1.1-2.2,1.3-2,3-3.3c1.6-1.2,2.5-2.1,3.8-3.4c20.7-22,1.5-54.9,10-74.5c5.5-12.6,5.8-13.2,3.3-29.4
		c-0.6-3.5-0.6-8.1-2.7-9.8c-3.7,1.6-2.5,5.4-8.7,12.2c-14.2,15.3-18.6,14.9-14.9,46.5C878,194.7,851.9,180.3,851.4,187.9
		L851.4,187.9z M940.2,188c-7.1,5.5-12,10.1-14.8,21.4c-2.2,8.8-1.8,25.3,0.3,33.9c3.1,13.1,12.1,20.2-5.9,39.7
		c-1.5,1.6-2.9,3.2-4.1,5c-1.3,2.1-2.7,5.9-0.6,7.6c1.2,1,22.6-11,26.1-14.5c19.1-19.1,2.9-42.6,5.4-70c1.5-16.9,4.9-19.4,16.2-22.7
		c0.2-0.1,0.4-0.1,0.5-0.1l1.7-1c-3.6-6.5-20.1,3.7-20.6-42.2c-0.2-18.1,8.5-38.5-2.5-54.4c-3.5-5.1-10.8-9.8-14.7-16.5
		c-1.7-2.9-1.7-5.7-4.6-6.6c-2.6,2.2-3,12.2-3.5,15.6c-2.1,17.6,3.9,19.2,6.1,30.5c2.8,13.8-9.7,43.9,5.5,64.7
		C934.4,183.1,939,185,940.2,188z"/>
	<g>
		<path class="st1" d="M912.7,914.5c4.7,0.2,0.6-0.5,9-4.8c13.2-6.8,22.6,3.8,36.6,0.4c3.7-0.9,7.4-2,9.9-4.1
			c1.4-1.1,5.9-5.6,6.7-7.3c9.6-19.4-14.2-42.7-19.9-60.5c-3.8-11.7-8.1-24,1.5-32.8c3.9-3.6,7.1-2.3,10.2-4.4
			c-1.6-3.5-10.5,0.2-15.1-12.8c-2.6-7.3,0.8-17.2,3-24.2c4.6-14.4,13.9-23.9,19.5-38c3-7.7,5.4-14.4,1.3-22.6
			c-2.8-5.5-9.1-10.7-16.3-12.5c-9.2-2.3-16.8,1.7-25.6,2.6c-14.1,1.5-15.2-7.2-20.8-6.9c-0.4,5.3,6.2,11,9.9,13.4
			c13.3,8.7,29.4-4.9,37.1,8.3c3.1,5.4-0.5,13.8-2.8,19.3c-4.2,10.2-11.9,23.1-14,33.4c-1.6,7.7-0.4,27.6,4.7,34.9
			c5.1,7.3,3.1,3.5-0.9,10.4c-4,7-5.2,24.2-4.2,32c2.4,17,21.2,40,17.7,52.5c-4.3,15.7-25,2.4-37.4,9.9
			C919.4,903,912.3,909.4,912.7,914.5z"/>
		<path class="st1" d="M849.8,801c2.9,1.8,11.9,0.9,15.6,12.5c2,6.5-1.2,16.8-3.2,23.2c-6.5,20-30.1,43.6-21,61.1
			c3,5.8,8.6,10.5,16.5,12.2c15.6,3.4,27-9,41.5,2.1c2.8,2.2,0.8,2.6,4.7,2.4c0.2-2.5-2.4-6.3-3.8-8c-14.6-17.9-35.5,1.6-43.2-14.2
			c-5.7-11.6,13.5-34.7,16.9-53.4c1.3-7.3,0.1-14.4-0.7-21.8c-1.3-11.3-5.7-12.4-7.3-16.8c3.6-5.2,6.2-7.8,7.3-16.3
			c1-7.1,2.2-14.5,0.8-21.6c-3.8-18.9-21.6-41.3-17.5-52.5c5.5-14.9,23.3-1.7,37.2-9.6c3.7-2.1,10.8-9,10.3-13.4
			c-4.8-0.7-6.9,8-20.8,6.7c-8.8-0.8-31.3-10-41.8,9.9c-9.2,17.4,14.7,41.7,21,61.1C874.1,801.6,852.2,796.3,849.8,801z"/>
	</g>
	<g>
		<path class="st1" d="M641.1,518.9c-3.6,6-4.5,5-8.1,14.8c-11.8,31.9,4,75.9-19.9,72.1c-7-1.1-15.4-7.1-26.6,3.8
			c-5.8,5.7-11.8,21.1-11,23.5c4.9,0,1.9-8.2,12.5-12.3c9.6-3.7,13.2-1.3,22.2-0.6c7.5,0.6,16.8,0.2,21.4-4.3l0.6-0.7
			c0.1-0.2,0.8-1,0.8-1.1c7.7-10.6-1.8-37.5,3.4-66.2c1.6-8.7,4.3-16.4,10.2-21.6c5.2-4.5,8.5-4.7,10.1-5.8c1.3-0.9,1.1-0.5,1.8-1.9
			c-2.4-2.8-7.6-3-11.8-7.2c-15.2-15.4-12.5-47.8-10.7-69.2c1.8-20.2-5.8-25.7-25.2-24.7c-8.8,0.5-13.3,3-22.7-0.6
			c-6.4-2.4-7.1-4.7-9.4-9.6c-1.1-2.4-1.1-2.7-3.4-2.6c-0.4,3.7,5.9,22.8,18.1,28.1c9.4,4.1,11,0.3,18.7-1
			c8.7-1.4,12.4,2.4,13.8,9.7c3.8,19-0.7,43.5,6.9,62.7C635.7,511,637.2,513.8,641.1,518.9z"/>
		<path class="st1" d="M502.1,467c0,13.8-0.9,35.5-12.4,44.6l-8.4,4.9c-2.7,1.1-2,0.3-3.1,2.2c1.5,2.7,9.9,3.1,14.9,10.2
			c12.5,17.8,9.2,45.9,7.7,66.6c-1.5,20.3,6,26,26,24.6c9.1-0.6,12.9-2.9,22.4,0.7c8.8,3.3,7.9,12.2,12.4,12.6
			c0.6-2.7-4.2-13.3-5.9-16.5c-2.6-5-6.6-9.6-11.8-11.9c-8.6-3.8-10.8-0.7-18.5,0.5c-27.2,4.4-9-40.6-21.5-72
			c-3.6-9-4.6-9.4-8.8-14.6c2.4-2.7,3.1-2.4,5-6.3c1.2-2.4,2.5-5.2,3.6-7.9c2.4-5.7,3.8-12.7,4.4-19.2c2.1-22.2-3.4-56.7,15.2-53.8
			c7.9,1.3,11.7,4.8,20,1c5.4-2.4,9.5-6.3,12.2-11.5l6.1-15.4c-0.1-1.2,0-0.6-0.4-1.5c-2.4,0.6-0.8-1.3-3.6,4.4
			c-2.9,5.9-6.7,8.4-14.1,9.5c-10.6,1.5-18-2.7-29.6-0.4C494.3,421.6,502.1,444.3,502.1,467z"/>
	</g>
	<g>
		<path class="st2" d="M604.6,67.3c1.3,2.4,13.3,2.5,19.8,14.5c11.7,21.5-4.5,66.8,9.3,86.2l4.8,5.1c-0.2,0.2-0.4,0.2-0.5,0.6
			c-0.3,1.1-6,2.6-7.3,11.7c-0.8,5.5,0.3,13,0.7,18.6c1,12.3,1.4,25.1,1.6,37.5c0.5,36.7,2.7,38.4-22.7,50.9c-0.3,0.2-1.4,0.7-1.8,1
			c-1.6,1.2-0.4-0.1-1.5,1.4c11,5.2,54.5-6.8,47.2-50.8c-2.9-17.6-11.2-41.5,6.1-59.8c5.8-6.1,10.2-4.7,17.1-8.3l-3.8-2
			c-9.3-2.9-19.6-3.7-23.5-16.7c-2.6-8.8-3.9-30.6-5.1-41c-1.4-12.7-1.3-28.9-8.4-37.3C632.3,73.7,616.6,62.8,604.6,67.3z"/>
		<path class="st2" d="M459.2,175.6c4.4,2.3,19,2.1,26,23.4c9.1,27.7-16.6,57.9,8.1,83.7c4.5,4.6,25.1,17.4,36.6,11.8
			c-1.5-2.2-0.8-1.3-5.7-3.4c-24.5-10.8-20.7-21.6-20.3-49.9l2.3-55.8c-0.6-4.6-2-6.9-5.1-9.8c-0.9-0.8-0.7-0.6-1.5-1.3
			c-1.6-1.4-0.5-0.4-1.5-1.5c7.2-7.9,10.1-9.7,10.6-24.3c0.6-19.1-3.5-53.9,3.4-66.7c6.9-12.8,18-11.7,20.2-14.8
			c-4.6-2-14,0.4-18.2,1.8c-30.7,10.9-17.9,49.9-27.3,87.8C482.6,173.8,464.1,170.3,459.2,175.6z"/>
	</g>
	<g>
		<path class="st1" d="M155.8,798.9c2,6.1,7.6-2,13.9,9.8c4.7,8.9,6.4,30.3,5.5,40.9c-0.5,7-1.1,15.4-2.5,22
			c-3.2,14.6-6.8,27.8,3.3,38.3c4.4,4.6,10.9,5.1,16.8,0.7c2.2-1.7,3.9-5.3,7.5-3.7c3,1.3,3.3,4.6,4.8,7.6c3.7-3,1.8-13.7-5.3-12.8
			c-7.1,0.9-7.9,8-15.1,5c-21.5-8.9,4.7-60-6.1-93.3c-2.3-6.9-3.7-10.3-8.1-14.4c2-2.2,3.2-3,4.8-6c14.2-27.4-2-69.6,0.6-87.9
			c1.6-11.4,10.6-17.7,16.3-12.8c13.9,12.1,15.7-4.3,14.3-7c-1-1.9-0.9-1.1-1.8-1.6c-3.3,14.4-10.9,4.7-11.7,4.1
			c-5.8-4.5-11.9-4.8-16.7,0.2c-10.5,11-7.1,22.9-3.7,38.5c3.5,15.8,4.3,48.1-2.8,62.5C164.9,799.2,162.6,794,155.8,798.9z"/>
		<path class="st1" d="M249.4,683h-0.1c-3.8,6.5-0.7,14.4,5.7,13.3c6.2-1,7.8-8.3,15.1-5.1c11.4,5,8.9,24.2,7.4,33.7
			c-3,19.4-9.5,52.5,3.4,70.8c0.8,1.1,0.5,0.7,1.4,1.7l1.7,1.6c-3.9,4.7-5.8,6-8.1,14.1c-5.5,19.3-1.5,40.9,1.5,59.3
			c1.1,6.6,2.1,13.4,1.2,20.3c-0.7,6.1-4.2,11.7-8.1,13.8c-2.5,1.3-5.9,1.1-8.3-0.5c-2.5-1.7-2.2-3.2-6.8-4.2
			c-7.4-1.6-9.8,8.2-6.2,12.9c1.8-3,1.1-5.8,4.2-7.6c6-3.5,12.4,14,24,3.3c6.2-5.7,5.9-8.1,7.1-16.2c1.4-8.8-1-13.3-2.6-20.9
			c-1.5-6.8-2.1-14.7-2.7-21.9c-0.8-10.4-0.1-44.3,10.9-49c2.9-1.2,6.7-1.3,8.4-4c-3.9-4.8-8.6,2-14.2-9.7
			c-2.9-6.1-3.4-11.8-4.4-19.4c-1.2-9.2-1.5-11.8-0.8-21.4c0.5-7,1.2-15,2.5-21.7c2.2-11.6,8.1-26.2-3.7-37.9
			c-5.3-5.2-10.7-5.4-16.5-0.6C254.8,693.2,252.3,693.4,249.4,683z"/>
	</g>
	<g>
		<path class="st1" d="M932.6,398.4c9.8,3.8-0.9,19.4,8.6,25.5c11.1,5.1,13-13.7,18.6-16.9c2.6,0.9,4,1.2,4.9,9.4
			c0.5,4.5-0.1,9.1-0.6,13.5c-2.4,21.5-8.2,44.2-5.7,65.6c0.7,5.9,2.6,6.7,4.1,10.7c-3.7,6.2-5,14-5.4,22.2
			c-0.8,15.8,2.8,74.3,1.6,79.8c-1.5,6.5-7.5,5.5-11.1-1.9c-2.3-4.8-3.1-8.7-8.4-10.1c-6.1-1.6-9.6,1-11.7,5.2
			c-3.8,7.9-0.9,10.3-6.2,12c-1.4-1-2.5-3.1-3.5-5.1c2.1-0.7,3.6-2.7,3.6-5c0-2.9-2.4-5.3-5.3-5.3c-2.9,0-5.3,2.4-5.3,5.3
			c0,2,1.2,3.8,2.9,4.7l2.7,7.3c2.5,3.8,6.5,6.4,12.8,4.8c5.3-5.6,2.9-9.1,4.9-17.1c8-0.8,3.4,7.7,7.6,14.3
			c2.9,4.7,9.5,8.1,16.3,6.4c23.9-5.9,1.5-70.4,10.2-103c2.4-9.1,3.1-9.4,7-11.1c3.7-1.7,1.3,0.6,4-2.3c-1.4-4.5-1.8-2.5-5.2-5.1
			c-1.8-1.4-3.4-3.9-4.3-6.8c-8.3-24.6,16-76-3.3-95.7c-3.6-3.7-8.8-7.5-15.6-2.5c-6.2,4.5-2.4,10.8-6.1,16.2
			c-0.2-0.2-0.4-0.7-0.5-0.5c-1.1,2.8-3.2-15.6-4.1-17.1c-3.6-6.3-11.1-3-14,1c-2.5,3.4-1.4,4.4-4.4,6.6c-0.8,0.6-1.3,0.8-1.6,0.9
			c-0.2-0.1-0.4-0.1-0.6-0.1c-0.1-0.2,0-0.5-0.1,0c-0.3-0.1-0.6-0.1-0.9-0.1c-2.9,0-5.3,2.4-5.3,5.3c0,2.9,2.4,5.3,5.3,5.3
			c2.9,0,5.3-2.4,5.3-5.3v0C927.4,408,926.6,399.6,932.6,398.4z"/>
		<path class="st1" d="M884,398.4c-9.8,3.8,0.9,19.4-8.6,25.5c-11.1,5.1-13-13.7-18.6-16.9c-2.6,0.9-4,1.2-4.9,9.4
			c-0.5,4.5,0.1,9.1,0.6,13.5c2.4,21.5,8.2,44.2,5.7,65.6c-0.7,5.9-2.6,6.7-4.1,10.7c3.7,6.2,5,14,5.4,22.2
			c0.8,15.8-2.8,74.3-1.6,79.8c1.5,6.5,7.5,5.5,11.1-1.9c2.3-4.8,3.1-8.7,8.4-10.1c6.1-1.6,9.6,1,11.7,5.2c3.8,7.9,0.9,10.3,6.2,12
			c1.4-1,2.5-3.1,3.5-5.1c-2.1-0.7-3.6-2.7-3.6-5c0-2.9,2.4-5.3,5.3-5.3c2.9,0,5.3,2.4,5.3,5.3c0,2-1.2,3.8-2.8,4.7l-2.7,7.3
			c-2.5,3.8-6.5,6.4-12.8,4.8c-5.3-5.6-2.9-9.1-4.9-17.1c-8-0.8-3.4,7.7-7.6,14.3c-2.9,4.7-9.5,8.1-16.3,6.4
			c-23.9-5.9-1.5-70.4-10.2-103c-2.4-9.1-3.1-9.4-7-11.1c-3.7-1.7-1.3,0.6-4-2.3c1.4-4.5,1.8-2.5,5.2-5.1c1.8-1.4,3.4-3.9,4.3-6.8
			c8.3-24.6-15.9-76,3.3-95.7c3.6-3.7,8.8-7.5,15.6-2.5c6.2,4.5,2.4,10.8,6.1,16.2c0.2-0.2,0.4-0.7,0.5-0.5
			c1.1,2.8,3.2-15.6,4.1-17.1c3.6-6.3,11.1-3,14,1c2.5,3.4,1.4,4.4,4.4,6.6c0.8,0.6,1.3,0.8,1.6,0.9c0.2-0.1,0.4-0.1,0.6-0.1
			c0.1-0.2,0-0.5,0.1,0c0.3-0.1,0.6-0.1,0.9-0.1c2.9,0,5.3,2.4,5.3,5.3c0,2.9-2.4,5.3-5.3,5.3c-2.9,0-5.3-2.4-5.3-5.3v0
			C889.2,408,890,399.6,884,398.4z"/>
	</g>
	<path class="st1" d="M582.6,911.5c1.2-4,3.9-1.4,11.6-6.5c14-9.1,10.9-22,6.7-40.6c-2.3-10-5.9-18.3-7.3-28.8
		c-2.9-22.8,2.5-22.5,6-29.3c-1.5-3.7-4-2.5-9.7-10.7c-10.9-15.9-7.5-33.1,1.7-48.7c2.7-4.6,5.1-8.5,7.9-13.4
		c3.4-5.8,4.7-7.2,5-16.4c0.6-17.7-14.9-22.7-19.6-20.9c1.6,3.5,1.5,4.3,0.6,8.1c-13.9,4.6-9-9.8-5.9-12.2c5.2-4,21.5,0,28.1,8.4
		c3.4,4.3,8,9,8.5,16.7c1.2,17.6-7.8,25.1-14,36.8c-2,3.8-7.1,14.1-7.7,18.2c-2,12.2,5.1,25.5,14.2,29.7c2.3,1.1,2.7,0.6,4.4,2.5
		c-1,9-13.6,4.3-6.4,30.3c5.1,18.4,16,51.6,3.8,67.9C601,915.7,586.1,917,582.6,911.5L582.6,911.5z M523.5,804.1
		c3.1-1.9,4.6-1.8,7.9-4.5c2.2-1.8,4.1-4,6-6.7c22.5-32.3-38.6-57.1-8.6-92.5c7.5-8.9,23.1-12.2,28.2-8.1c2.3,1.9,3.7,6.9,3.2,10.5
		c-2.7,2.1-5.3,4.7-8.7,1.2c-2-3.2-0.4-5.2-0.1-8.1c-10.8-1.9-27.7,14.3-14.4,37.9c1.6,2.8,2.5,4,4.2,6.5
		c10.9,16.5,18,36.3,5.9,54.9c-4,6.1-8.5,8.3-10.1,11.2c2.3,5.1,4.6,3.5,6.2,11.8c4.6,24.4-16.4,56.5-9.3,77.1
		c1.7,4.8,4.3,6.7,8.3,9.5c8.2,5.9,10.8,1.9,12,7.1c-6.2,5.9-21.4,1.1-28-8.4c-17.1-24.6,10-70,5.4-86.1
		C528.9,808.3,524,810.8,523.5,804.1z"/>
	<g>
		<path class="st2" d="M176.4,414.6c2.9,4.8,4.6,12.2,2.2,26c-3.8,21.7-28.7,43.2-46.5,52c-8.4,4.2-23.5,7.4-32.1,14.2
			c-2,1.6-0.9,0.5-2.7,2.4c4.8,12.7,27.7,6.5,62.5,38.2c16.4,14.9,25.9,43.1,16.6,57.8c-1.5-0.9-3.2-1.4-5.1-1.4
			c-5.6,0-10.1,4.5-10.1,10.1c0,5.6,4.5,10.1,10.1,10.1c5.6,0,10.1-4.5,10.1-10.1c0-0.2,0-0.4,0-0.6c13.2-11.3,11.1-43.8,2.1-59.9
			c-8.4-15-23.3-26.5-37.9-35.2c-4.9-2.9-12.1-5.3-16.1-9c73.5-30.1,67.1-85,51.9-102.5c0-0.3,0.1-0.7,0.1-1.1
			c0-5.6-4.5-10.1-10.1-10.1c-5.6,0-10.1,4.5-10.1,10.1c0,5.6,4.5,10.1,10.1,10.1C173.1,416,174.9,415.5,176.4,414.6z"/>
		<path class="st2" d="M278,414.6c-2.9,4.8-4.6,12.2-2.2,26c3.8,21.7,28.7,43.2,46.5,52c8.4,4.2,23.5,7.4,32.1,14.2
			c2,1.6,0.9,0.5,2.7,2.4c-4.8,12.7-27.7,6.5-62.5,38.2c-16.4,14.9-25.9,43.1-16.6,57.8c1.5-0.9,3.2-1.4,5.1-1.4
			c5.6,0,10.1,4.5,10.1,10.1c0,5.6-4.5,10.1-10.1,10.1c-5.6,0-10.1-4.5-10.1-10.1c0-0.2,0-0.4,0-0.6c-13.2-11.3-11.1-43.8-2.1-59.9
			c8.4-15,23.3-26.5,37.9-35.2c4.9-2.9,12.1-5.3,16.1-9c-73.5-30.1-67.1-85-51.9-102.5c0-0.3-0.1-0.7-0.1-1.1
			c0-5.6,4.5-10.1,10.1-10.1c5.6,0,10.1,4.5,10.1,10.1c0,5.6-4.5,10.1-10.1,10.1C281.3,416,279.5,415.5,278,414.6z"/>
	</g>
	<g>
		<path class="st2" d="M163.8,162c0.5,0.9,1.2,1.7,2.1,2.4c14.2,22.1-4.3,43.7-23.7,53.3c-5.3,2.6-14.7,4.7-20.1,8.9
			c-1.3,1-0.6,0.3-1.7,1.5c3,7.9,17.3,4.1,39.1,23.9c11.3,10.3,17.4,30.7,8.2,38.8c-2.2,2-3.2,1.9-4.4,4.8
			c18.4,3.4,18.3-26.8,11-39.7c-5.3-9.4-14.6-16.6-23.7-22c-3-1.8-7.6-3.3-10.1-5.6c26.8-11,50.1-38.6,33.8-67.7
			c-5.3-9.4-14.6-16.6-23.7-22c-3-1.8-7.6-3.3-10.1-5.6c60.5-24.8,34.5-76.4,23.3-66.3c2.5,4.5,10.7,5.1,7.5,23.2
			c-2.4,13.6-18,27-29.1,32.6c-5.3,2.6-14.7,4.7-20.1,8.9c-1.3,1-0.6,0.3-1.7,1.5c3,7.9,17.3,4.1,39.1,23.9c1.6,1.5,3.2,3.2,4.5,5
			C163.9,161.9,163.9,162,163.8,162z"/>
		<path class="st2" d="M313.9,227.6c-2.7,3.2-4.9,3.1-9.9,6c-8.6,5.1-18.7,13.5-24.2,22.5c-7.4,12.1-5.9,43.9,11.2,39.2
			c-1.4-5.7-4.9-2.4-7.2-8.6c-1.3-3.4-1.2-10.6-0.7-14.3c1.9-13.6,18.1-28,29.8-33.7c5.9-2.8,18.8-4.8,21.1-10.7
			c-6.3-8.5-46-14.3-50.9-43.5c-0.2-0.9-0.3-1.8-0.4-2.6c0-1.8,0.2-3.5,0.3-4.8c0.6-16.3,20.1-29,29.8-33.7
			c5.9-2.8,18.8-4.8,21.1-10.7c-6.2-8.3-21.1-5.3-39.2-23.4c-3.9-3.9-10.3-11.6-11.7-20.1c-3.3-19.6,5.9-17.5,7.7-22.8
			c-7.9-4.6-13.7,6.7-14.7,13.2c-1.4,8.8-0.6,17.9,3.6,25.2c5.8,10.2,21.6,23.8,34.2,27.4c-2.7,3.2-4.9,3.1-9.9,6
			c-8.6,5.1-18.7,13.5-24.2,22.5c-2.9,4.6-4.4,12.2-4.2,19.5c-0.4,7.1,0.8,14,4.1,19.9C285.5,210.4,301.3,224,313.9,227.6z"/>
	</g>
	<g>
		<path class="st1" d="M1180,809.2c-2.5-10.7-14.5-13.7-23.4-14.6c8.9-0.8,20.9-3.9,23.4-14.6c2.4-10.3,5.9-37.8,8.4-58.2
			c1.9-15.9,0.2-32-5.1-47.1c0,0-17.3,18.7-19.3,30.7c-2,11.9,8.5,73.3-16.9,89.1c-0.3,0-0.4,0-0.4,0c0.1,0,0.1,0.1,0.2,0.1
			c-0.1,0-0.1,0.1-0.2,0.1c0,0,0.2,0,0.4,0c25.5,15.7,14.9,77.1,16.9,89.1c2,12,19.3,30.7,19.3,30.7v0c5.3-15.1,7-31.2,5.1-47.1
			C1185.9,847,1182.3,819.6,1180,809.2z"/>
		<path class="st1" d="M1252.8,809.2c2.5-10.7,14.5-13.7,23.4-14.6c-8.9-0.8-20.9-3.9-23.4-14.6c-2.4-10.3-5.9-37.8-8.4-58.2
			c-1.9-15.9-0.2-32,5.1-47.1c0,0,17.3,18.7,19.3,30.7c2,11.9-8.5,73.3,16.9,89.1c0.3,0,0.4,0,0.4,0c-0.1,0-0.1,0.1-0.2,0.1
			c0.1,0,0.1,0.1,0.2,0.1c0,0-0.2,0-0.4,0c-25.5,15.7-14.9,77.1-16.9,89.1c-2,12-19.3,30.7-19.3,30.7v0c-5.3-15.1-7-31.2-5.1-47.1
			C1246.9,847,1250.4,819.6,1252.8,809.2z"/>
	</g>
	<g>
		<path class="st1" d="M1189.6,576.2c-28.7-6.8-21.9,22.1-21.9,22.1s5.2-16,13.7-8.8c8.5,7.1-0.8,24.8-15.5,21.2
			c-13.4-3.2-13.1-14.6-12-46.3c0.8-24.4-1.8-41.5-16.4-48.7c14.6-7.1,17.2-24.2,16.4-48.7c-1.1-31.8-1.4-43.1,12-46.3
			c14.7-3.6,24.1,14.1,15.5,21.2s-13.7-8.8-13.7-8.8s-6.7,28.9,21.9,22.1c28.7-6.8,4.7-54.8-16.3-53c-4.4,0.4-9.3,2.3-13.9,5.4
			c-18.8,12.5-27.6,41.9-19.2,67.3c0.2,0.6,0.4,1.2,0.6,1.7c6.6,18.1-1.9,30.7-8.6,37.2c-0.8,0.7-1.5,1.4-2.2,2
			c0.7,0.6,1.4,1.2,2.2,2c6.7,6.5,15.1,19,8.6,37.2c-0.2,0.6-0.4,1.2-0.6,1.7c-8.4,25.4,0.4,54.7,19.2,67.2c4.6,3.1,9.5,5,13.9,5.4
			C1194.2,631.1,1218.2,583,1189.6,576.2z"/>
		<path class="st1" d="M1243.2,576.2c28.7-6.8,21.9,22.1,21.9,22.1s-5.2-16-13.7-8.8c-8.5,7.1,0.8,24.8,15.5,21.2
			c13.4-3.2,13.1-14.6,12-46.3c-0.8-24.4,1.8-41.5,16.4-48.7c-14.6-7.1-17.2-24.2-16.4-48.7c1.1-31.8,1.4-43.1-12-46.3
			c-14.7-3.6-24.1,14.1-15.5,21.2c8.5,7.1,13.7-8.8,13.7-8.8s6.7,28.9-21.9,22.1c-28.7-6.8-4.7-54.8,16.3-53
			c4.4,0.4,9.3,2.3,13.9,5.4c18.8,12.5,27.6,41.9,19.2,67.3c-0.2,0.6-0.4,1.2-0.6,1.7c-6.6,18.1,1.9,30.7,8.6,37.2
			c0.8,0.7,1.5,1.4,2.2,2c-0.7,0.6-1.4,1.2-2.2,2c-6.7,6.5-15.1,19-8.6,37.2c0.2,0.6,0.4,1.2,0.6,1.7c8.4,25.4-0.4,54.7-19.2,67.2
			c-4.6,3.1-9.5,5-13.9,5.4C1238.5,631.1,1214.5,583,1243.2,576.2z"/>
	</g>
	<g>
		<path class="st1" d="M1163.5,273.8c-21.1-3.4-6.3-23.7,5.7-53.4c6.2-15.4,1-27.1-5.5-34.9c6.5-7.7,11.7-19.5,5.5-34.9
			c-12-29.7-26.8-50-5.7-53.4c21.1-3.4,36.5-5,16-24.2c0.2,0.4,7.4,13.8-9.1,13.8c-16.8,0-42.5,6-27.1,32.3
			c12.3,21,17.8,37.1,13,59.2c-0.5,2.3-10.9,4.7-11.7,7.2c0.7,2.5,11.2,4.9,11.7,7.2c4.7,22.1-0.7,38.3-13,59.2
			c-15.4,26.3,10.3,32.3,27.1,32.3c16.6,0,9.4,13.4,9.1,13.8C1200.1,278.8,1184.7,277.2,1163.5,273.8z"/>
		<path class="st1" d="M1269.2,273.8c21.1-3.4,6.3-23.7-5.7-53.4c-6.2-15.4-1-27.1,5.5-34.9c-6.5-7.7-11.7-19.5-5.5-34.9
			c12-29.7,26.8-50,5.7-53.4c-21.1-3.4-36.5-5-16-24.2c-0.2,0.4-7.4,13.8,9.1,13.8c16.8,0,42.5,6,27.1,32.3
			c-12.3,21-17.8,37.1-13,59.2c0.5,2.3,10.9,4.7,11.7,7.2c-0.7,2.5-11.2,4.9-11.7,7.2c-4.7,22.1,0.7,38.3,13,59.2
			c15.4,26.3-10.3,32.3-27.1,32.3c-16.6,0-9.4,13.4-9.1,13.8C1232.7,278.8,1248.1,277.2,1269.2,273.8z"/>
	</g>
</g>
</svg>
