<svg xmlns="http://www.w3.org/2000/svg" viewBox="520 690 41 225"><path d="M523.5 804.1c3.1-1.9 4.6-1.8 7.9-4.5 2.2-1.8 4.1-4 6-6.7 22.5-32.3-38.6-57.1-8.6-92.5 7.5-8.9 23.1-12.2 28.2-8.1 2.3 1.9 3.7 6.9 3.2 10.5-2.7 2.1-5.3 4.7-8.7 1.2-2-3.2-.4-5.2-.1-8.1-10.8-1.9-27.7 14.3-14.4 37.9 1.6 2.8 2.5 4 4.2 6.5 10.9 16.5 18 36.3 5.9 54.9-4 6.1-8.5 8.3-10.1 11.2 2.3 5.1 4.6 3.5 6.2 11.8 4.6 24.4-16.4 56.5-9.3 77.1 1.7 4.8 4.3 6.7 8.3 9.5 8.2 5.9 10.8 1.9 12 7.1-6.2 5.9-21.4 1.1-28-8.4-17.1-24.6 10-70 5.4-86.1-2.7-9.1-7.6-6.6-8.1-13.3z" fill="#403831"/></svg>
