<svg xmlns="http://www.w3.org/2000/svg" viewBox="0 124.375 1300 731.25"><path d="M1432.273 799.92c-2.016-.393-4.812-1.467-6.215-2.386-1.403-.92-3.27-1.671-4.148-1.671-2.061 0-18.45-16.283-21.638-21.5-3.717-6.08-5.835-15.311-5.835-25.426 0-4.926.39-9.198.868-9.493.478-.295 1.173-2.46 1.545-4.81 1.208-7.633 12.773-22.75 21.587-28.216 8.572-5.316 18.322-6.991 23.9-4.106 3.288 1.7 9.1 8.042 9.1 9.93 0 2.338-3.571 4.62-7.227 4.62-1.97 0-5.52-1.114-7.921-2.487-2.394-1.369-5.752-2.494-7.463-2.5-6.041-.024-14.683 7.746-19.451 17.488-2.592 5.294-2.937 7.065-2.938 15.066 0 11.086 1.452 19.42 4.23 24.273 1.153 2.013 2.763 4.963 3.578 6.555 2.641 5.158 11.461 12.986 16.745 14.86 7.858 2.788 23.614 1.7 32.946-2.277 1.1-.468 3.07-1.153 4.377-1.522 2.962-.836 20.123-18.25 20.123-20.419 0-.875.788-2.704 1.75-4.064 2.213-3.126 3.823-7.357 12.356-32.472 2.035-5.99 5.083-17.104 5.896-21.5 1.36-7.348 2.961-13.028 4.527-16.056.81-1.565 1.472-4.168 1.472-5.785s1.183-7.377 2.63-12.8c1.447-5.423 2.997-11.66 3.445-13.86a259.81 259.81 0 0 1 1.925-8.5c1.877-7.613 2.872-12.252 3.968-18.5.579-3.3 1.67-7.574 2.426-9.5.754-1.924 1.913-6.424 2.575-10 .66-3.574 2-8.524 2.977-11 .976-2.474 2.583-6.974 3.572-10 4.217-12.899 8.963-21.291 15.583-27.55 6.584-6.226 11.718-9.116 14.38-8.095 3.064 1.176 1.44 4.47-4.981 10.108-3.575 3.139-6.5 6.16-6.5 6.714 0 .555-.9 2.152-2 3.55-1.1 1.4-2 3.345-2 4.325s-.338 1.932-.75 2.115c-.992.44-4.717 9.173-6.33 14.834-.704 2.475-1.593 4.95-1.975 5.5-.382.55-.948 2.35-1.258 4-1.324 7.04-2.41 11.133-3.478 13.12-.628 1.166-1.587 4.541-2.132 7.5-.544 2.959-1.696 9.205-2.558 13.88-.862 4.675-1.952 9.4-2.421 10.5-.966 2.264-2.734 10.033-3.64 16-1.757 11.557-5.734 28.805-11.411 49.5-1.736 6.325-3.573 13.441-4.083 15.815-.936 4.35-3.447 12.564-5.254 17.185-.538 1.375-1.305 3.4-1.705 4.5-.4 1.1-2.602 5.9-4.893 10.667-3.426 7.129-5.688 10.173-12.737 17.144-8.388 8.294-12.247 10.832-21.41 14.081-8.5 3.015-25.512 4.342-34.13 2.664zm131.63-62.47c-1.747-2.664-1.59-3.916 3.266-26.087 1.325-6.05 2.804-13.025 3.286-15.5.482-2.475 1.4-6.075 2.04-8 .638-1.925 1.53-5.525 1.979-8 1.546-8.513 4.005-18.347 4.857-19.423.47-.593 1.155-3.327 1.524-6.077s1.058-6.125 1.531-7.5c.791-2.297 2.996-11.836 4.565-19.75 1.082-5.456-2.3-4.083-9.596 3.896-5.024 5.493-7.006 7.034-8.372 6.51-1.388-.533-1.653-1.372-1.182-3.73.335-1.673 1.29-3.723 2.122-4.556.832-.832 1.515-1.819 1.517-2.192 0-.373 2.716-3.603 6.031-7.178 3.315-3.575 8.117-9.425 10.671-13 2.554-3.575 5.415-7.4 6.358-8.5.943-1.1 1.962-3.575 2.265-5.5a216.629 216.629 0 0 1 4.75-22.5c2.906-10.931 4.5-17.686 6.952-29.462.625-3.004 1.774-6.694 2.553-8.2.78-1.507 1.428-3.774 1.441-5.039.028-2.655 3.05-11.862 5.389-16.416 2.026-3.947 8.827-11.707 12.639-14.42 2.833-2.018 2.99-2.026 5.37-.271 4.465 3.293 5.715 7.828 5.754 20.877.038 12.534-1.486 23.419-3.8 27.145-.758 1.219-1.377 2.82-1.377 3.559 0 1.15-3.71 8.84-9.762 20.227-.877 1.65-3.286 5.025-5.355 7.5-2.068 2.475-5.027 6.39-6.576 8.7-1.548 2.31-4.626 6.136-6.838 8.5-5.65 6.04-7.155 8.718-7.77 13.835-.294 2.455-1.702 9.64-3.129 15.965-4.064 18.021-2.548 21.011 5.325 10.5 6.845-9.14 22.24-24.245 25.56-25.078 2.474-.621 3.342-.221 6.138 2.83 4.184 4.566 5.047 10.085 3.457 22.105-1.379 10.417-1.175 9.08-5.119 33.548-1.632 10.123-2.7 19.248-2.373 20.277.922 2.904 4.951 5.151 7.138 3.98 3.29-1.76 17.304-18.1 17.304-20.176 0-.648.863-2.39 1.918-3.871 1.456-2.044 2.079-5.215 2.585-13.154 1.356-21.288 6.183-42.058 11.145-47.954 1.294-1.538 2.352-3.34 2.352-4.006 0-.665 2.712-3.863 6.026-7.105 5.92-5.793 6.124-5.896 11.696-5.896 4.471 0 6.46.547 9.404 2.587 5.821 4.034 6.872 3.33 12.056-8.087.5-1.1 1.77-3.125 2.822-4.5 1.562-2.042 2.24-2.299 3.704-1.4 2.063 1.268 3.015 8.078 1.36 9.731-.587.588-1.068 2.087-1.068 3.331 0 1.245-.853 4.642-1.895 7.55-1.043 2.908-2.634 9.338-3.537 14.288-.902 4.95-2.081 10.946-2.62 13.325-.539 2.378-1.266 8.355-1.616 13.281-.959 13.51 1.561 16.583 10.47 12.764 4.254-1.823 11.496-7.057 15.187-10.975.831-.883 3.701-3.877 6.378-6.653 3.22-3.34 5.15-6.349 5.704-8.895a407.464 407.464 0 0 1 1.939-8.347c.967-3.955 2.453-11.166 6.08-29.5 1.666-8.424 2.75-14.77 3.418-20 .351-2.75 1.024-5.9 1.496-7 .472-1.1 1.066-4.25 1.321-7 .255-2.75 1.057-8.29 1.783-12.31 1.139-6.306 1.12-7.432-.136-8.208-1.691-1.045-5.534-.329-8.651 1.614-1.199.746-4.021 1.652-6.272 2.012-2.251.36-4.334 1.045-4.63 1.523-.295.478-1.35.869-2.343.869-.993 0-2.879.836-4.19 1.857-1.312 1.022-4.186 2.44-6.386 3.152-3.565 1.154-9.813 3.76-14.736 6.148-.955.464-2.214.843-2.798.843-.584 0-2.925.9-5.202 2-4.967 2.4-7.094 2.512-8.794.463-1.065-1.284-.822-2.008 1.487-4.418 2.37-2.474 13.658-8.695 20.043-11.047 5.106-1.88 13.705-5.608 21.077-9.134 4.442-2.126 8.717-3.874 9.5-3.887.783-.012 2.548-.902 3.923-1.977 1.375-1.076 3.175-1.968 4-1.982 1.767-.03 8.177-3.775 9.235-5.394.404-.618.742-2.307.75-3.752.022-3.78 2.532-9.253 6.117-13.335 3.643-4.15 4.356-4.294 6.327-1.287 1.085 1.656 1.252 3.232.635 5.97-.598 2.65-.477 4.022.422 4.767 1.337 1.11 2.46.847 9.328-2.189 7.03-3.107 10.5-3.158 13.284-.194l2.399 2.553-3.734 3.421c-2.053 1.882-4.752 3.432-5.998 3.444-1.245.012-3.39.902-4.765 1.978-1.375 1.075-3.175 1.995-4 2.044-.825.049-3.739 1.334-6.476 2.857-3.931 2.187-5.15 3.486-5.803 6.184a581.792 581.792 0 0 1-1.729 6.915c-.496 1.925-1.162 4.85-1.48 6.5-1.686 8.741-2.956 14.555-4.262 19.5-1.409 5.335-2.277 9.535-4.339 21-1.855 10.317-2.743 14.498-3.93 18.5-.652 2.2-1.415 5.8-1.695 8s-.85 4.45-1.264 5c-.414.55-1.047 5.746-1.406 11.548-.359 5.8-.844 11.543-1.079 12.76-.615 3.194 1.323 8.012 3.501 8.704 1.03.326 3.13-.183 4.667-1.133 3.889-2.402 11.236-10.544 11.268-12.489.015-.885 1.737-3.585 3.826-6 2.09-2.414 4.411-6.415 5.16-8.89.749-2.475 2.567-7.2 4.041-10.5 1.475-3.3 3.25-8.025 3.947-10.5.696-2.475 2.118-6.23 3.16-8.345 1.041-2.114 1.893-4.725 1.893-5.802 0-1.076.978-3.846 2.172-6.155 3.44-6.652 3.828-7.58 3.828-9.154 0-.816.831-2.96 1.847-4.764 1.015-1.804 3.299-5.85 5.074-8.992 2.739-4.847 12.13-14.5 15.21-15.633 1.51-.555 3.87 1.922 3.87 4.063 0 1.085-.804 3.167-1.787 4.627-3.462 5.147-4.45 7.993-3.927 11.313 1.09 6.908 2.639 11.16 5.893 16.174 1.845 2.842 4.005 6.518 4.801 8.168.796 1.65 2.251 4.194 3.233 5.654.983 1.46 1.786 3.796 1.786 5.191s.45 2.815 1 3.155c1.318.814 1.318 22.185 0 23-.55.34-1.014 1.604-1.031 2.809-.034 2.384-2.246 5.147-8.759 10.94-4.006 3.565-4.558 3.75-11.118 3.75-6.466 0-7.176-.228-11.23-3.615-6.13-5.122-7.73-7.185-8.878-11.444-2.047-7.605 3.167-12.417 6.49-5.99.84 1.623 1.526 3.772 1.526 4.777 0 1.005 1.325 3.277 2.944 5.05 2.483 2.718 3.65 3.223 7.45 3.223 3.928 0 4.81-.417 6.883-3.25 3.44-4.7 5.117-10.854 4.342-15.935-.818-5.36-3.645-14.992-4.775-16.265-.464-.523-.844-1.895-.844-3.05 0-1.155-.397-2.528-.883-3.05-1.406-1.512-5.117-12.833-5.117-15.612 0-1.39-.822-3.272-1.827-4.182-1.71-1.548-1.966-1.505-4 .66-1.195 1.272-2.173 3.057-2.173 3.968 0 .91-.945 3.356-2.1 5.435a278.047 278.047 0 0 0-4.124 7.78c-1.114 2.2-2.42 4.676-2.903 5.5-.482.826-1.338 2.626-1.902 4-.563 1.376-2.137 4.587-3.497 7.136-1.36 2.55-2.474 5.142-2.474 5.76 0 2.448-11.475 26.425-13.418 28.037-.87.722-1.582 1.941-1.582 2.71 0 3.856-11.934 18.262-18.5 22.332-6.246 3.872-13.108-.875-14.165-9.8-.792-6.688-2.806-8.557-5.538-5.142-9.214 11.52-25.415 26.968-28.282 26.968-.755 0-3.042-1.575-5.083-3.5-5.199-4.903-7.326-4.469-8.825 1.8-.369 1.54-3.572 5.702-7.12 9.25l-6.45 6.45h-5.98c-5.669 0-6.19-.212-10.018-4.08-2.221-2.243-4.039-4.663-4.039-5.377 0-2.08-2.727-3.765-4.952-3.059-1.126.358-2.048 1.321-2.048 2.14 0 2.48-8.247 16.375-10.213 17.209-.433.183-.787.764-.787 1.29 0 1.606-4.11 6.631-7.945 9.713-1.996 1.604-5.449 3.223-7.673 3.6-3.581.604-4.405.344-7.212-2.278-3.148-2.94-3.17-3.029-3.15-12.81.011-5.416.731-13.448 1.6-17.848 2.726-13.79 5.737-40.945 4.907-44.252-.32-1.274-1.674-2.814-3.009-3.422-3.648-1.662-7.597.435-14.287 7.586-5.155 5.511-17.23 22.505-17.23 24.25 0 .374-.677 1.427-1.503 2.34-1.35 1.492-2.204 4.894-4.014 15.998-.314 1.925-.989 5.077-1.5 7.004-1.177 4.445-4.323 20.248-6.883 34.587-2 11.201-4.672 17.574-8.149 19.434-2.517 1.348-2.7 1.289-4.486-1.437zm125.323-67.694c7.372-8.002 8.98-12.018 9.683-24.172.536-9.267 1.904-21.003 4.113-35.287.568-3.674.294-4.42-2.847-7.75-2.25-2.386-4.379-3.684-6.041-3.684-5.557 0-11.396 3.722-14.04 8.948a388.885 388.885 0 0 1-2.342 4.552c-3.643 6.923-5.279 14.077-7.89 34.5-2.248 17.596-1.045 24.883 4.575 27.69 4.564 2.28 9.85.565 14.79-4.797zm-79.15-95.659c1.616-1.043 11.27-16.66 15.02-24.299 5.67-11.552 7.982-29.832 4.225-33.416-1.628-1.553-5.88-.327-5.89 1.698 0 .706-.585 2.408-1.293 3.783-1.713 3.331-4.81 12.203-8.725 25a1714.675 1714.675 0 0 1-5.685 18.2c-1.36 4.234-2.18 8.171-1.823 8.75.752 1.216 2.537 1.338 4.17.284zm-150.64 57.645c-3.772-1.5-7.907-5.855-10.33-10.88-1.766-3.662-2.15-6.175-2.069-13.5.14-12.425 2.812-18.123 13.301-28.36 7.605-7.423 9.656-8.81 19.099-12.924 10.765-4.69 12.16-5.215 13.833-5.215.972 0 2.194-.395 2.717-.877 1.221-1.128 11.372-4.509 18.45-6.146 3.025-.7 7.068-2.106 8.985-3.125 1.917-1.019 4.972-1.852 6.79-1.852 1.817 0 4.974-.83 7.014-1.843 2.04-1.014 5.96-2.43 8.71-3.148 2.75-.717 5.428-1.688 5.95-2.157.523-.469 1.767-.852 2.764-.852.998 0 2.595-.427 3.55-.95.955-.521 4.887-2.367 8.737-4.1 15.55-7.002 20.166-9.5 23.748-12.848 2.776-2.596 4.04-3.213 4.873-2.38.833.832.567 1.906-1.022 4.138-3.527 4.954-14.085 13.963-19.004 16.216a1105.277 1105.277 0 0 0-10.595 4.95c-8.21 3.89-13.14 5.973-14.152 5.977-.466.002-4.223 1.387-8.348 3.079-9.314 3.818-13.827 5.352-21.571 7.33-6.21 1.585-31.325 9.833-34.93 11.47-11.95 5.428-14.528 7.045-19.55 12.262-4.145 4.309-5.852 6.98-6.749 10.561-3.83 15.3.701 26.136 11.66 27.888 4.12.66 12.388-.935 14.89-2.871 2.662-2.06 1.18 2.193-1.805 5.178-5.069 5.07-18.151 7.68-24.945 4.979zm430.242-18.531c-1.792-.883-4.628-3.46-6.303-5.727l-3.045-4.121.438-16.5c.562-21.142 1.512-26.366 7.183-39.5.712-1.65 2.015-4.748 2.895-6.884.909-2.206 5.16-7.388 9.845-12 6.304-6.205 9.455-8.528 13.38-9.866 6.761-2.305 8.212-2.218 12.58.75 4.873 3.31 6.44 3.161 10.483-1 1.87-1.925 4.277-3.5 5.35-3.5 1.658 0 1.953.705 1.953 4.679 0 4.467-1.232 9.814-3.123 13.557-.483.955-.878 2.742-.878 3.972 0 2.127-2.43 11.022-5.68 20.792-.823 2.475-2.206 9.557-3.074 15.737-2.077 14.794-1.389 16.723 5.722 16.04 5.692-.547 10.557-4.412 22.81-18.122 7.925-8.868 9.03-11.401 10.313-23.655 2.148-20.521 3.748-31.83 4.775-33.75.624-1.165 1.134-3.931 1.134-6.147 0-2.215.919-8.657 2.041-14.315 4.04-20.362 6.192-30.194 6.946-31.728 1.126-2.288 3.013-8.51 3.013-9.93 0-.675.9-3.09 2-5.366 1.1-2.277 2-4.999 2-6.048 0-1.05.651-3.102 1.446-4.562.795-1.46 2.202-4.454 3.126-6.654 6.484-15.43 9.977-21.169 17.498-28.75 8.804-8.875 11.19-9.608 15.315-4.705 1.41 1.675 3.077 4.765 3.707 6.866 1.559 5.203.577 21.849-2.1 35.589-1.179 6.05-2.372 12.35-2.651 14-.28 1.65-1.111 4.35-1.847 6-.737 1.65-1.649 4.241-2.027 5.76-.379 1.517-1.088 3.006-1.577 3.308-.49.302-.89 1.622-.89 2.932 0 1.31-.45 2.66-1 3-.55.34-1 1.477-1 2.528s-.9 3.513-2 5.472c-1.1 1.958-2 4.21-2 5.003 0 .794-.965 3.593-2.146 6.22-1.18 2.627-2.452 5.677-2.827 6.777-.374 1.1-1.66 4.025-2.856 6.5-1.197 2.475-2.175 4.879-2.173 5.342 0 .463-.898 1.986-1.998 3.385-1.1 1.398-2 3.143-2 3.878 0 .734-2.25 4.651-5 8.704-2.75 4.053-5 7.822-5 8.375 0 .553-.9 1.82-2 2.816-1.1.995-2 2.227-2 2.736 0 .51-1.548 2.817-3.441 5.127-4.524 5.52-5.56 8.503-5.548 15.952.018 10.292.901 13.588 4.078 15.23 3.946 2.041 6.238 1.832 12.528-1.144 4.155-1.966 9.74-6.8 22.938-19.857 15.716-15.548 17.448-17.596 17.47-20.652.013-1.866.501-5.417 1.083-7.892.583-2.475 1.687-9.45 2.454-15.5 3.146-24.823 4.264-32.137 5.324-34.815.613-1.549 1.114-4.114 1.114-5.702 0-1.587.726-5.495 1.614-8.685.887-3.189 1.983-7.823 2.434-10.298 1.605-8.798 2.932-14.16 4.285-17.308.754-1.756 1.839-4.992 2.41-7.192 1.188-4.579 3.126-10.2 4.391-12.737.477-.955.866-2.255.866-2.888 0-3.02 10.785-22.38 14.921-26.784 7.283-7.755 10.88-8.813 15.827-4.65 4.24 3.567 5.26 8.416 5.193 24.675-.07 16.901-1.022 23.27-5.885 39.384-.996 3.3-2.397 8.025-3.114 10.5-.716 2.475-1.59 4.95-1.942 5.5-.351.55-1.222 3.025-1.933 5.5-.712 2.475-1.648 5.4-2.08 6.5-.431 1.1-1.359 3.575-2.06 5.5-.702 1.925-2.097 4.694-3.101 6.154s-1.848 3.26-1.876 4c-.027.74-1.81 4.496-3.959 8.346-2.15 3.85-4.742 8.575-5.76 10.5-4.27 8.073-4.367 8.215-13.675 20-8.262 10.462-9.825 14.25-11.515 27.909-1.586 12.817-1.367 18.485.788 20.436 2.387 2.16 3.127 2.102 9.393-.736 3.866-1.75 8.471-5.617 17.21-14.447 6.562-6.63 12.3-11.828 12.75-11.55 1.367.845.881 4.652-1.172 9.176-2.162 4.764-18.458 21.487-26.696 27.397-2.826 2.027-7.422 4.363-10.215 5.193l-5.077 1.507-3.443-3.246c-1.893-1.786-3.749-4.469-4.123-5.962-.38-1.512.207-7.674 1.322-13.899 2.027-11.311 1.991-13.778-.2-13.778-1.209 0-9.332 6.995-23.686 20.397-16.113 15.044-24.124 20.603-29.692 20.603-6.764 0-9.36-3.188-10.175-12.49-.416-4.754-.9-6.063-2.345-6.338-1.241-.236-6.487 4.224-16.5 14.03-8.074 7.906-16.165 14.984-17.98 15.728-4.378 1.796-7.957-.027-10.124-5.16-2.376-5.623-3.933-5.594-9.295.173-6.057 6.514-11.313 10.057-14.92 10.057-1.573 0-2.86.45-2.86 1 0 1.36-.937 1.232-4.759-.652zm17.433-15.836c5.735-2.861 13.325-12.594 13.325-17.088 0-1.819.45-3.584 1-3.924.55-.34 1.005-2.28 1.011-4.31.01-2.03.73-5.94 1.609-8.69.879-2.75 1.943-8.15 2.365-12 .422-3.85 1.346-9.492 2.053-12.538 1.749-7.53.805-10.713-3.741-12.612-2.776-1.16-4.195-1.262-6.012-.434-1.308.596-3.172 1.084-4.142 1.084-.97 0-3.197 1.402-4.95 3.116-4.012 3.922-11.192 14.831-11.192 17.003 0 .9-.735 3.379-1.632 5.509-.898 2.13-1.822 5.447-2.054 7.372-.231 1.925-.852 4.625-1.378 6-.526 1.375-1.064 8.486-1.197 15.804-.236 13.139-.208 13.328 2.26 15.227 3.003 2.311 8.583 2.523 12.675.481zm82.534-68.847c2.636-4.303 4.791-8.277 4.791-8.832 0-.555 1.568-3.81 3.483-7.235 1.915-3.425 4.403-9.11 5.528-12.632 1.125-3.522 2.642-7.318 3.371-8.435.73-1.117 1.56-3.381 1.844-5.031.285-1.65 1.701-6.148 3.146-9.996 1.446-3.848 2.628-8.209 2.628-9.691 0-1.482.399-2.941.885-3.242.487-.3 1.111-1.79 1.388-3.31.276-1.518 1.193-5.236 2.037-8.261 2.278-8.164 6.003-34.62 5.28-37.5-1.185-4.72-5.097-2.317-8.16 5.014-.906 2.167-2.948 5.832-4.538 8.143-1.59 2.312-2.892 4.67-2.892 5.242 0 .572-.857 2.567-1.906 4.433a448.026 448.026 0 0 0-2.922 5.28c-.56 1.038-2.011 5.16-3.227 9.16-1.216 4-2.6 7.515-3.077 7.81-.477.295-.868 1.314-.868 2.265 0 .951-.9 3.495-2 5.653-1.1 2.157-2 5.033-2 6.39 0 1.357-.425 3.85-.946 5.539-3.812 12.369-4.99 17.674-8.443 38.04-3.728 21.984-1.904 25.08 6.598 11.196zm63.603-11.704c1.204-1.122 2.188-2.402 2.188-2.845 0-.443 1.14-2.113 2.532-3.71 2.75-3.157 10.468-16.034 10.468-17.464 0-.485.826-2.358 1.835-4.162 1.01-1.804 2.164-4.6 2.565-6.213.402-1.613 1.656-4.763 2.786-7 1.131-2.237 2.418-5.867 2.86-8.067.442-2.2 1.321-5.8 1.954-8 6.167-21.433 7.832-53.014 2.954-56.029-2.796-1.728-6.857 3.722-12.316 16.529-.586 1.375-1.87 3.694-2.852 5.154-.982 1.46-1.786 3.988-1.786 5.619 0 1.63-1.294 6.736-2.876 11.345-1.582 4.61-3.84 12.657-5.019 17.882-2.47 10.957-3.942 16.55-5.209 19.797-.492 1.263-.9 3.963-.904 6-.01 2.036-.726 8.653-1.604 14.703-2.764 19.042-2.73 18.5-1.181 18.5.779 0 2.401-.918 3.605-2.04zm503.363 89.724c-2.25-2.396-2.926-7.103-1.174-8.185.55-.34 1-1.401 1-2.358 0-2.39 6.218-4.631 8.885-3.203 4.147 2.219 3.604 8.553-1.185 13.81-2.612 2.868-4.79 2.85-7.526-.064zm-57.682-7.527c-5.552-3.386-8.492-8.378-8.492-14.417 0-4.453.433-5.8 2.489-7.732 2.417-2.27 2.548-2.285 4.5-.519 1.384 1.253 2.015 3.096 2.025 5.915.02 5.499 1.842 8.764 5.984 10.724 3.625 1.716 4.039 1.738 7.955.428 3.735-1.25 4.896-2.88 6.539-9.188 1.755-6.741 1.882-12.264.408-17.87-1.861-7.08-2.958-12.87-3.505-18.5-.74-7.613-2.185-11-4.693-11-1.34 0-8.59 6.605-20.876 19.019-24.362 24.617-34.165 31.154-45.78 30.529-5.67-.306-8.75-2.255-15.865-10.04-5.35-5.852-10.331-16.752-12.227-26.75-.533-2.808-1.171-5.307-1.418-5.555-1.17-1.169-3.773 1.14-5.113 4.534-.818 2.07-2.147 4.958-2.955 6.418-.808 1.46-1.469 3.359-1.469 4.22 0 4.773-11.568 21.626-14.845 21.626-2.261 0-1.007-10.348 1.968-16.237.483-.955.877-2.275.877-2.934 0-.659.941-3.252 2.09-5.764 1.15-2.51 2.454-5.465 2.897-6.565.444-1.1 1.753-4.334 2.91-7.186 4.467-11.013 1.97-12.062-7.897-3.314-3.722 3.3-7.157 6.01-7.633 6.023-.477.013-2.57 1.558-4.653 3.434-3.248 2.926-6.376 4.943-18.816 12.131-1.036.6-2.674 1.766-3.64 2.593-3.947 3.377-16.937 8.699-22.848 9.36-5.715.639-6.212.525-8.08-1.85-1.763-2.24-1.897-3.316-1.173-9.361.45-3.757 1.221-7.955 1.715-9.33.493-1.375 1.477-4.525 2.186-7 .71-2.475 1.662-4.928 2.116-5.45.455-.523.826-1.7.826-2.617s.836-3.864 1.856-6.55c3.879-10.207 4.09-11.296 2.49-12.895-1.931-1.931-2.931-1.86-8.346.598-2.76 1.254-7.695 2.27-12.768 2.628-7.362.521-8.315.816-8.69 2.685-.23 1.156-.7 3.45-1.041 5.1-.342 1.65-1.036 5.891-1.543 9.425-.566 3.944-1.894 7.892-3.44 10.228-1.384 2.093-2.517 4.417-2.517 5.165 0 2.487-16.27 18.14-21.5 20.686-6.908 3.361-17.96 3.44-24.657.177-7.727-3.765-13.937-10.558-16.578-18.136-1.433-4.112-1.684-19.877-.37-23.247.493-1.264 1.487-4.322 2.21-6.797 1.649-5.649 6.831-16 8.01-16 .486 0 .885-.585.885-1.299s2.477-3.897 5.505-7.073c8.882-9.319 10.947-12.379 9.515-14.104-.672-.81-2.864-1.721-4.871-2.027-2.007-.305-8.551-1.525-14.543-2.71l-10.893-2.156-2.357 2.74c-1.296 1.507-2.356 3.654-2.356 4.77 0 5.476-7.461 28.941-13.196 41.502-1.542 3.378-2.804 6.554-2.804 7.057 0 1.562-6.33 13.516-10.335 19.517-2.1 3.144-7.387 9.076-11.752 13.182-9.878 9.293-14.427 10.962-29.913 10.979-10.442.011-10.548-.013-19-4.356-9.537-4.899-19-13.664-19-17.598 0-1.268-.45-2.584-1-2.924-.568-.351-1-5.324-1-11.5s.432-11.15 1-11.5c.55-.34 1-1.498 1-2.573 0-4.136 8.135-16.236 13.309-19.796 7.618-5.242 17.946-6.567 28.123-3.608 5.01 1.456 9.568 4.533 9.568 6.459 0 1.697-4.162 3.824-6.834 3.491-21.22-2.641-24.971-1.554-31.164 9.027-2.181 3.726-2.871 6.533-4.604 18.726-.764 5.38.905 12.8 3.83 17.02 5.806 8.379 25.167 11.9 41.991 7.636 7.8-1.977 22.607-20.679 27.222-34.382.926-2.75 2.33-5.997 3.12-7.215.792-1.218 1.439-2.821 1.439-3.562 0-.741.9-3.21 2-5.487s2-4.81 2-5.629c0-.82.4-1.737.889-2.04.49-.301 1.13-2.015 1.423-3.808.721-4.409 2.497-12.03 4.457-19.13 1.533-5.555 1.524-5.942-.176-7.185-1.723-1.26-3.374-1.254-15.356.055-2.344.256-6.169 1.41-8.5 2.565-2.33 1.155-6.436 2.774-9.123 3.597-4.29 1.314-5.063 1.318-6.35.032-3.18-3.18 10.153-13.49 19.818-15.325 1.88-.358 4.013-1.119 4.74-1.692.728-.573 5.228-1.24 10-1.48 4.773-.241 9.384-.806 10.247-1.256 1.56-.813 2.701-3.872 5.012-13.44.664-2.75 2.042-6.403 3.063-8.118 1.02-1.715 1.856-3.84 1.856-4.724 0-1.67 1.554-5.378 8.243-19.658 3.403-7.264 5.409-9.918 13.8-18.25l9.817-9.75h6.01c3.307 0 6.284.44 6.617.979.978 1.583-1.172 4.618-4.367 6.165-5.173 2.506-22.12 19.83-22.12 22.612 0 1.235-5.725 12.326-7.068 13.694-.513.522-.932 2.026-.932 3.342 0 1.316-.9 3.536-2 4.935-1.1 1.398-2 3.355-2 4.348 0 .994-.45 2.085-1 2.425-.55.34-1 1.768-1 3.174 0 1.407-.748 4.661-1.661 7.233-2.158 6.074-1.287 9.873 2.426 10.591 1.504.29 5.435 1.23 8.735 2.086 12.593 3.269 30.27 6.539 31.558 5.838.307-.167 1.882.794 3.5 2.136l2.942 2.44-2.824 2.25c-4.956 3.952-22.676 21.038-22.676 21.866 0 .438-1.162 2.504-2.581 4.591-6.266 9.215-7.42 13.391-7.42 26.877 0 11.446.2 12.817 2.317 15.932 5 7.358 12.482 10.21 23.14 8.82 4.262-.556 5.627-1.347 9.75-5.647 2.636-2.75 4.794-5.75 4.794-6.666 0-.917 1.285-4.334 2.855-7.594 2.251-4.671 2.972-7.828 3.404-14.9l.547-8.971-5.403-5.192c-4.779-4.591-5.403-5.656-5.403-9.207 0-3.185.696-4.753 3.368-7.586 1.852-1.964 4.04-3.571 4.863-3.571 1.783 0 10.299 8.874 11.91 12.412.67 1.47 2.297 2.745 3.975 3.113 3.393.745 13.001-.25 17.884-1.853 8.015-2.631 20-12.364 20-16.242 0-1.718 4.57-16.44 6.497-20.93.709-1.65 1.737-4.8 2.286-7 .897-3.601 2.041-7.084 4.269-13 .414-1.1 1.764-4.7 3-8s3.583-8.7 5.216-12c1.633-3.3 3.462-7.125 4.064-8.5.603-1.375 1.9-3.695 2.882-5.155.982-1.46 1.786-3.302 1.786-4.095 0-.792.9-2.255 2-3.25 1.1-.996 2-2.459 2-3.251 0-4.484 21.349-26.25 25.747-26.25.539 0 2.166 1.187 3.616 2.637 2.519 2.519 2.637 3.112 2.637 13.3 0 5.865-.403 11.091-.895 11.614-.492.522-1.358 2.975-1.925 5.45-1.36 5.934-3.28 10.975-5.431 14.26-.962 1.468-1.75 3.121-1.75 3.674 0 .553-.9 2.607-2 4.566-1.1 1.958-2 4.11-2 4.78 0 .67-2.25 4.731-5 9.023s-5 8.16-5 8.595c0 .435-.9 1.606-2 2.602-1.1.995-2 2.403-2 3.129 0 1.795-10.13 13.526-23.46 27.168-7.28 7.45-11.32 12.388-11.86 14.5-.452 1.761-1.28 5.003-1.842 7.203-.56 2.2-1.879 5.924-2.929 8.276-1.05 2.353-1.908 5.3-1.908 6.55s-.442 2.715-.982 3.255-1.765 5.576-2.723 11.19c-1.635 9.582-1.639 10.314-.054 11.899 1.504 1.504 2.408 1.556 8.3.47 3.635-.67 8.257-2.1 10.27-3.18 2.012-1.078 4.05-1.96 4.528-1.96.479 0 2.87-1.35 5.315-3 2.445-1.65 4.69-3 4.99-3 .298 0 3.148-1.981 6.33-4.402 3.184-2.42 6.854-4.965 8.157-5.654 2.528-1.338 15.143-11.939 15.701-13.194.184-.413.936-.75 1.673-.75 1.749 0 8.494-7.897 8.494-9.944 0-.872.942-4.053 2.093-7.07 1.15-3.018 3.186-8.394 4.523-11.948 1.337-3.553 3.095-7.475 3.907-8.714.813-1.24 1.477-3.011 1.477-3.937 0-2.04 3.99-13.509 5.162-14.837.46-.523.838-1.782.838-2.799 0-1.016.9-3.71 2-5.987s2-4.73 2-5.45c0-.72 1.28-4.123 2.844-7.562 1.564-3.439 3.659-8.167 4.655-10.508.995-2.34 2.416-4.758 3.156-5.373.74-.614 1.345-1.923 1.345-2.91 0-2.338 9.05-15.836 14.81-22.088 4.977-5.404 12.617-10.873 15.187-10.873.91 0 2.633 1.041 3.829 2.314 2.448 2.607 3.005 10.372 1.102 15.37-.59 1.549-1.498 5.06-2.02 7.804-1.36 7.166-6.612 20.323-11.78 29.512-.464.825-1.656 3.075-2.65 5-.992 1.925-3.193 5.278-4.891 7.45-1.698 2.174-3.537 4.743-4.087 5.709-2.418 4.248-9.35 13.75-13.381 18.34-5.48 6.242-11.119 14.532-11.119 16.347 0 1.038.913 1.21 3.75.704 14.065-2.51 17.567-1.661 23.612 5.716 4.323 5.275 5.638 8.582 5.638 14.174 0 8.06-1.098 10.697-6.992 16.796-4.769 4.934-6.595 6.107-11.508 7.39-3.344.873-8.652 1.386-12.42 1.2-6.313-.313-6.594-.228-6.923 2.103-.501 3.552 7.062 17.767 12.345 23.2 6.231 6.41 9.17 7.486 16.158 5.922 4.594-1.028 6.85-2.397 13.19-8.01 4.208-3.722 10.322-9.642 13.587-13.155a1915.84 1915.84 0 0 1 12.225-12.998c3.458-3.636 7.907-9.019 9.887-11.961 6.811-10.122 19.062-21.927 22.753-21.927 2.822 0 5.698 2.846 5.698 5.638 0 1.09-2.008 4.333-4.461 7.208-2.622 3.071-4.739 6.703-5.134 8.807-.628 3.351.705 12.335 2.5 16.847 5.8 14.572 6.341 25.21 1.946 38.222-2.273 6.729-7.824 13.557-12.452 15.316-4.364 1.66-14.565 1.158-17.907-.88zm-53.195-64.51c1.779-.742 4.69-3.008 6.468-5.034 2.561-2.917 3.231-4.562 3.22-7.9-.02-5.79-1.834-8.88-6.513-11.094-3.583-1.696-4.61-1.758-10.472-.636-5.726 1.096-7.128 1.854-11.768 6.363-9.278 9.016-9.005 15.781.768 19 3.18 1.048 15.217.589 18.297-.698zm-80.297-51.93c2.03-1.65 9.902-12.285 10.706-14.466.356-.964 1.769-3.245 3.14-5.07 1.372-1.825 3.457-5.2 4.634-7.5 1.177-2.3 2.641-5.082 3.254-6.182 1.092-1.962 5.124-10.59 9.113-19.5 1.108-2.475 2.757-6.975 3.664-10 .907-3.025 2.063-6.534 2.569-7.797 1.38-3.45 1.11-8.193-.502-8.812-1.65-.633-5.578 1.227-5.578 2.642 0 .529-1.575 3.154-3.5 5.834-1.925 2.68-3.5 5.189-3.5 5.577 0 .388-2.025 3.836-4.5 7.662s-4.51 7.504-4.523 8.175c-.012.67-.902 2.344-1.977 3.719-1.076 1.375-1.966 3.197-1.978 4.05-.012.852-.398 1.977-.857 2.5-.46.522-1.646 3.2-2.638 5.95-2.952 8.187-8.587 22.852-9.608 25-3.614 7.61-2.515 11.95 2.08 8.218zm77.521-7.752c1.4-2.22 3.24-4.807 4.087-5.75 3.433-3.826 14.259-19.223 14.87-21.15.361-1.137 1.076-2.066 1.589-2.066.513 0 .933-1.035.933-2.3s.422-2.728.939-3.25c1.096-1.11 6.933-16.445 8.077-21.224 1.855-7.75-2.093-9.577-7.632-3.53-1.861 2.032-3.384 4.088-3.384 4.569 0 .48-1.289 2.755-2.863 5.054-1.575 2.3-3.168 5.153-3.54 6.34-.37 1.188-1.332 2.706-2.136 3.373-.804.667-1.461 2.03-1.461 3.031 0 1.699-2.461 7.325-12.1 27.667-4.3 9.07-4.781 11.893-2.15 12.58.962.252 1.856.51 1.987.574.13.063 1.383-1.7 2.784-3.918zm127.484 92.65c0-3.845 1.697-11.185 3.04-13.116.384-.55 1.29-3.363 2.015-6.25.725-2.888 1.683-5.25 2.129-5.25.446 0 .812-1.238.814-2.75 0-1.513.902-4.224 2-6.025 1.098-1.8 1.996-4.018 1.996-4.927 0-.91 1.4-6.187 3.11-11.726 3.205-10.376 3.865-12.297 5.69-16.572.588-1.375 1.61-4.3 2.273-6.5.662-2.2 1.56-4.9 1.996-6 .436-1.1 1.306-3.682 1.935-5.736.628-2.055 1.56-3.994 2.07-4.31.51-.315.926-1.79.926-3.278s.9-4.385 2-6.438c1.1-2.052 2-4.543 2-5.535s.38-2.23.845-2.753c.464-.523 1.866-3.65 3.115-6.95 1.248-3.3 3.119-7.908 4.155-10.24 1.037-2.331 1.885-4.693 1.885-5.25 0-.555.45-1.01 1-1.01s1-.846 1-1.88c0-2.468 7.468-10.12 9.877-10.12 5.983 0 4.794 7.767-4.363 28.5-.728 1.65-2.101 5.13-3.05 7.735-.948 2.605-2.34 5.248-3.094 5.873-.753.625-1.37 1.988-1.37 3.028s-.379 2.672-.842 3.627c-.463.955-1.848 3.987-3.078 6.737a716.8 716.8 0 0 1-4.106 9c-1.028 2.2-2.614 6.346-3.525 9.213-.91 2.867-2.283 5.734-3.051 6.372-.769.638-1.397 2.203-1.397 3.478 0 1.275-.45 2.597-1 2.937-.55.34-1 1.257-1 2.04 0 .781-1.733 5.142-3.85 9.69-2.118 4.548-4.455 9.845-5.194 11.77-.738 1.925-2.156 4.976-3.15 6.78-.993 1.804-1.806 3.948-1.806 4.764 0 .815-.4 2.264-.886 3.22-1.317 2.58-4.926 11.442-5.594 13.736-.32 1.1-1.691 3.35-3.046 5l-2.465 3v-3.884zm-760.006-85.27c0-2.98-.737-4.334-4-7.346-4.798-4.43-5.057-7.096-1.076-11.077 3.602-3.602 6.02-3.683 10-.334 2.808 2.362 3.076 3.114 3.076 8.606 0 5.213-.411 6.537-3.084 9.91-1.696 2.142-3.496 3.895-4 3.895-.503 0-.916-1.644-.916-3.654zm375-50.65c-1.375-.644-3.372-1.963-4.438-2.933-1.066-.97-2.271-1.763-2.678-1.763-.406 0-2.346-2.647-4.311-5.881-3.315-5.457-3.573-6.463-3.573-13.941 0-4.433.392-8.303.871-8.599.48-.296 1.138-1.872 1.464-3.504.8-3.996 11.712-14.935 15.694-15.731 1.657-.332 3.255-.995 3.551-1.474.296-.478 1.547-.87 2.78-.87 1.232 0 2.668-.398 3.19-.883 1.911-1.776 17.638-3.156 46.95-4.12 16.5-.542 34.05-1.43 39-1.974 4.95-.543 11.594-.996 14.764-1.006 3.17-.01 6.545-.414 7.5-.9.955-.484 3.88-1.384 6.5-2 8.77-2.057 9.595-1.304 4.691 4.281-3.314 3.775-11.485 7.013-20.455 8.107-2.75.335-7.048 1.057-9.55 1.604-2.504.547-20.279 1.143-39.5 1.324-48.503.456-49.142.563-58.148 9.759-5.798 5.92-8.079 11.852-6.923 18.01.796 4.245 7.95 11.798 11.174 11.798 2.384 0 7.447 4.861 7.447 7.15 0 4.333-9.713 6.485-16 3.545z" style="fill:#2a0508;fill-opacity:1" transform="translate(-986.31 48.614) scale(.81246)"/><path d="M1430.12 796.93c-2.016-.393-4.812-1.467-6.215-2.386-1.403-.92-3.27-1.671-4.148-1.671-2.061 0-18.45-16.283-21.638-21.5-3.717-6.08-5.836-15.311-5.836-25.426 0-4.926.391-9.198.869-9.493.478-.295 1.173-2.46 1.545-4.809 1.208-7.634 12.773-22.751 21.586-28.217 8.573-5.316 18.323-6.99 23.902-4.106 3.287 1.7 9.098 8.043 9.098 9.93 0 2.338-3.57 4.62-7.226 4.62-1.97 0-5.52-1.114-7.921-2.487-2.394-1.369-5.752-2.494-7.463-2.5-6.041-.024-14.683 7.746-19.451 17.488-2.592 5.295-2.937 7.065-2.938 15.066 0 11.086 1.451 19.42 4.23 24.273 1.153 2.013 2.763 4.963 3.578 6.555 2.641 5.159 11.461 12.986 16.745 14.86 7.858 2.789 23.614 1.7 32.946-2.276 1.1-.469 3.07-1.154 4.377-1.523 2.962-.835 20.123-18.249 20.123-20.419 0-.875.788-2.704 1.75-4.064 2.213-3.126 3.823-7.356 12.356-32.472 2.035-5.99 5.083-17.104 5.896-21.5 1.36-7.348 2.961-13.028 4.527-16.056.81-1.565 1.471-4.168 1.471-5.785s1.184-7.377 2.63-12.8c1.448-5.422 2.998-11.66 3.446-13.86a259.81 259.81 0 0 1 1.924-8.5c1.877-7.613 2.873-12.252 3.969-18.5.579-3.3 1.67-7.574 2.425-9.5.755-1.924 1.914-6.424 2.575-10 .662-3.574 2.001-8.524 2.978-11 .976-2.474 2.583-6.974 3.572-10 4.217-12.899 8.963-21.29 15.583-27.55 6.584-6.226 11.718-9.116 14.38-8.094 3.064 1.175 1.44 4.47-4.982 10.107-3.575 3.139-6.5 6.16-6.5 6.715 0 .554-.9 2.152-2 3.55-1.1 1.398-2 3.344-2 4.324s-.337 1.932-.75 2.115c-.99.441-4.716 9.173-6.328 14.834-.705 2.475-1.594 4.95-1.976 5.5-.382.55-.948 2.35-1.258 4-1.324 7.04-2.41 11.133-3.478 13.12-.628 1.166-1.587 4.541-2.132 7.5-.544 2.959-1.696 9.205-2.558 13.88-.863 4.675-1.952 9.4-2.421 10.5-.966 2.264-2.734 10.033-3.641 16-1.757 11.557-5.733 28.806-11.41 49.5-1.736 6.325-3.573 13.441-4.083 15.815-.936 4.35-3.447 12.565-5.254 17.185-.538 1.375-1.305 3.4-1.705 4.5-.4 1.1-2.602 5.9-4.893 10.668-3.426 7.128-5.688 10.173-12.737 17.143-8.389 8.294-12.247 10.832-21.41 14.081-8.5 3.015-25.512 4.343-34.13 2.664zm131.63-62.47c-1.747-2.664-1.59-3.916 3.266-26.087 1.325-6.05 2.804-13.025 3.286-15.5.482-2.475 1.4-6.075 2.04-8 .638-1.925 1.529-5.525 1.979-8 1.546-8.512 4.005-18.347 4.857-19.423.47-.592 1.155-3.327 1.524-6.077.368-2.75 1.058-6.125 1.531-7.5.791-2.296 2.996-11.836 4.565-19.75 1.081-5.455-2.3-4.083-9.597 3.896-5.023 5.493-7.005 7.034-8.371 6.51-1.388-.532-1.654-1.371-1.182-3.73.335-1.673 1.29-3.723 2.122-4.556.832-.832 1.515-1.818 1.517-2.192 0-.373 2.716-3.603 6.03-7.178 3.316-3.575 8.118-9.425 10.672-13 2.554-3.575 5.415-7.4 6.358-8.5.942-1.1 1.962-3.575 2.265-5.5a216.629 216.629 0 0 1 4.75-22.5c2.906-10.93 4.5-17.686 6.952-29.462.625-3.004 1.774-6.694 2.553-8.2.78-1.506 1.427-3.774 1.441-5.039.028-2.655 3.05-11.861 5.389-16.416 2.026-3.947 8.827-11.706 12.639-14.42 2.833-2.018 2.99-2.026 5.37-.27 4.465 3.292 5.715 7.828 5.754 20.876.038 12.534-1.487 23.42-3.801 27.146-.757 1.218-1.376 2.819-1.376 3.558 0 1.15-3.71 8.84-9.762 20.227-.877 1.65-3.286 5.025-5.355 7.5-2.068 2.475-5.027 6.39-6.576 8.7-1.548 2.31-4.626 6.136-6.838 8.5-5.65 6.04-7.155 8.718-7.77 13.835-.294 2.456-1.702 9.64-3.129 15.965-4.064 18.021-2.548 21.011 5.324 10.5 6.845-9.14 22.24-24.245 25.56-25.078 2.475-.621 3.343-.221 6.138 2.83 4.185 4.566 5.048 10.086 3.458 22.105-1.379 10.418-1.175 9.08-5.119 33.548-1.632 10.123-2.7 19.248-2.373 20.277.922 2.904 4.951 5.151 7.138 3.98 3.29-1.76 17.304-18.1 17.304-20.176 0-.648.863-2.39 1.918-3.87 1.456-2.045 2.079-5.216 2.585-13.155 1.356-21.288 6.183-42.058 11.145-47.954 1.294-1.538 2.352-3.34 2.352-4.006 0-.665 2.712-3.863 6.026-7.105 5.92-5.793 6.124-5.896 11.696-5.896 4.471 0 6.46.547 9.404 2.587 5.821 4.034 6.872 3.33 12.056-8.087.5-1.1 1.77-3.125 2.821-4.5 1.563-2.042 2.242-2.298 3.705-1.399 2.063 1.267 3.014 8.077 1.36 9.73-.587.588-1.068 2.087-1.068 3.331 0 1.245-.853 4.642-1.895 7.55-1.043 2.908-2.634 9.338-3.537 14.288-.902 4.95-2.081 10.946-2.62 13.325-.54 2.379-1.266 8.355-1.616 13.282-.959 13.51 1.561 16.582 10.47 12.764 4.254-1.824 11.495-7.058 15.186-10.976.832-.883 3.702-3.877 6.379-6.653 3.22-3.34 5.15-6.348 5.704-8.895a413.86 413.86 0 0 1 1.938-8.347c.968-3.955 2.454-11.166 6.08-29.5 1.667-8.424 2.752-14.769 3.42-20 .35-2.75 1.023-5.9 1.495-7 .472-1.1 1.066-4.25 1.321-7 .255-2.75 1.057-8.29 1.783-12.31 1.139-6.306 1.12-7.431-.136-8.208-1.691-1.045-5.534-.329-8.651 1.614-1.199.747-4.022 1.652-6.272 2.012-2.251.36-4.335 1.045-4.63 1.523-.295.478-1.35.869-2.343.869-.993 0-2.88.836-4.19 1.857-1.312 1.022-4.186 2.44-6.386 3.152-3.565 1.154-9.813 3.76-14.736 6.148-.955.464-2.214.843-2.798.843-.584 0-2.925.9-5.202 2-4.967 2.4-7.094 2.512-8.794.464-1.066-1.285-.822-2.009 1.487-4.419 2.37-2.474 13.658-8.695 20.043-11.047 5.106-1.88 13.705-5.607 21.077-9.134 4.441-2.125 8.716-3.874 9.5-3.886.783-.013 2.548-.903 3.923-1.978 1.375-1.076 3.175-1.967 4-1.982 1.767-.03 8.177-3.774 9.235-5.394.404-.618.742-2.307.75-3.752.022-3.78 2.532-9.252 6.117-13.335 3.643-4.15 4.356-4.294 6.326-1.287 1.085 1.656 1.253 3.232.635 5.97-.597 2.65-.476 4.022.423 4.768 1.337 1.11 2.46.846 9.328-2.19 7.03-3.107 10.5-3.157 13.284-.194l2.399 2.553-3.734 3.421c-2.053 1.882-4.752 3.432-5.998 3.444-1.246.012-3.39.902-4.765 1.978-1.375 1.075-3.175 1.995-4 2.044-.825.049-3.739 1.335-6.476 2.857-3.931 2.187-5.15 3.486-5.803 6.184a581.792 581.792 0 0 1-1.729 6.915c-.496 1.925-1.162 4.85-1.48 6.5-1.686 8.741-2.956 14.555-4.262 19.5-1.41 5.335-2.277 9.535-4.339 21-1.855 10.317-2.743 14.498-3.93 18.5-.652 2.2-1.415 5.8-1.695 8s-.85 4.45-1.264 5c-.414.55-1.047 5.746-1.406 11.548-.359 5.801-.844 11.543-1.079 12.76-.615 3.194 1.323 8.013 3.501 8.704 1.03.326 3.13-.183 4.667-1.133 3.889-2.402 11.236-10.544 11.268-12.488.015-.885 1.737-3.585 3.826-6 2.09-2.415 4.411-6.416 5.16-8.891.749-2.475 2.567-7.2 4.041-10.5 1.475-3.3 3.25-8.025 3.947-10.5.696-2.475 2.118-6.23 3.16-8.345 1.041-2.114 1.893-4.725 1.893-5.802 0-1.076.977-3.846 2.172-6.155 3.44-6.652 3.828-7.58 3.828-9.154 0-.816.831-2.96 1.847-4.764 1.015-1.804 3.299-5.85 5.074-8.992 2.738-4.847 12.13-14.5 15.21-15.633 1.51-.555 3.87 1.922 3.87 4.063 0 1.085-.804 3.168-1.787 4.627-3.463 5.147-4.45 7.993-3.927 11.313 1.09 6.908 2.639 11.16 5.893 16.175 1.845 2.842 4.005 6.517 4.8 8.167.797 1.65 2.252 4.194 3.234 5.654.983 1.46 1.786 3.796 1.786 5.191s.45 2.815 1 3.155c1.318.814 1.318 22.186 0 23-.55.34-1.014 1.604-1.031 2.809-.034 2.384-2.247 5.147-8.759 10.94-4.006 3.565-4.558 3.75-11.118 3.75-6.466 0-7.176-.228-11.23-3.615-6.13-5.122-7.73-7.184-8.878-11.444-2.047-7.605 3.167-12.417 6.49-5.99.84 1.623 1.526 3.773 1.526 4.777 0 1.005 1.325 3.277 2.944 5.05 2.483 2.718 3.65 3.223 7.45 3.223 3.928 0 4.81-.416 6.883-3.25 3.44-4.7 5.117-10.854 4.342-15.934-.818-5.361-3.645-14.993-4.775-16.266-.464-.523-.844-1.895-.844-3.05 0-1.155-.397-2.528-.883-3.05-1.406-1.512-5.117-12.833-5.117-15.612 0-1.39-.822-3.272-1.827-4.182-1.71-1.547-1.966-1.505-4 .66-1.195 1.272-2.173 3.058-2.173 3.968 0 .91-.945 3.356-2.1 5.435a278.047 278.047 0 0 0-4.125 7.78c-1.113 2.2-2.42 4.676-2.902 5.5-.483.826-1.338 2.626-1.902 4-.563 1.376-2.137 4.587-3.497 7.136-1.36 2.55-2.474 5.142-2.474 5.761 0 2.447-11.475 26.424-13.418 28.036-.87.722-1.582 1.942-1.582 2.71 0 3.856-11.934 18.262-18.5 22.332-6.246 3.872-13.108-.875-14.165-9.8-.792-6.687-2.806-8.557-5.538-5.142-9.214 11.52-25.415 26.968-28.282 26.968-.755 0-3.042-1.575-5.083-3.5-5.199-4.903-7.326-4.469-8.825 1.8-.369 1.54-3.572 5.703-7.12 9.25l-6.45 6.45h-5.98c-5.669 0-6.19-.212-10.018-4.08-2.221-2.243-4.039-4.663-4.039-5.377 0-2.08-2.727-3.764-4.952-3.058-1.126.357-2.048 1.32-2.048 2.14 0 2.48-8.247 16.374-10.214 17.208-.432.183-.786.764-.786 1.29 0 1.606-4.11 6.631-7.945 9.713-1.996 1.604-5.449 3.224-7.673 3.6-3.581.604-4.405.344-7.212-2.278-3.148-2.94-3.17-3.028-3.15-12.81.011-5.416.731-13.448 1.6-17.848 2.726-13.79 5.736-40.945 4.907-44.252-.32-1.274-1.674-2.814-3.01-3.422-3.647-1.662-7.596.435-14.286 7.586-5.155 5.512-17.23 22.505-17.23 24.25 0 .374-.677 1.428-1.504 2.341-1.349 1.491-2.203 4.893-4.014 15.997-.313 1.925-.988 5.077-1.499 7.004-1.178 4.445-4.323 20.248-6.883 34.587-2 11.202-4.672 17.574-8.149 19.435-2.517 1.347-2.7 1.288-4.486-1.438zm125.323-67.693c7.372-8.003 8.98-12.019 9.683-24.173.536-9.267 1.904-21.003 4.113-35.287.568-3.674.294-4.42-2.847-7.75-2.25-2.386-4.379-3.684-6.042-3.684-5.556 0-11.395 3.722-14.038 8.948a388.885 388.885 0 0 1-2.343 4.552c-3.643 6.923-5.28 14.078-7.89 34.5-2.249 17.596-1.045 24.883 4.574 27.69 4.565 2.28 9.851.566 14.79-4.796zm-79.15-95.66c1.616-1.043 11.27-16.66 15.02-24.298 5.67-11.553 7.982-29.832 4.225-33.417-1.628-1.553-5.881-.327-5.89 1.699 0 .705-.586 2.407-1.293 3.782-1.713 3.332-4.81 12.203-8.725 25a1714.675 1714.675 0 0 1-5.685 18.2c-1.36 4.234-2.18 8.171-1.823 8.75.752 1.216 2.537 1.338 4.17.284zm-150.64 57.645c-3.772-1.5-7.908-5.855-10.33-10.88-1.766-3.661-2.15-6.175-2.069-13.5.14-12.424 2.812-18.123 13.3-28.36 7.606-7.423 9.657-8.81 19.1-12.924 10.765-4.69 12.16-5.215 13.833-5.215.972 0 2.194-.395 2.716-.877 1.222-1.128 11.373-4.509 18.45-6.146 3.025-.7 7.069-2.105 8.986-3.124 1.917-1.02 4.972-1.853 6.79-1.853 1.817 0 4.974-.83 7.014-1.843 2.04-1.014 5.96-2.43 8.71-3.147 2.75-.718 5.428-1.689 5.95-2.158.523-.469 1.767-.852 2.764-.852.997 0 2.595-.427 3.55-.95.955-.521 4.886-2.367 8.736-4.1 15.55-7.002 20.167-9.5 23.749-12.848 2.776-2.595 4.04-3.213 4.873-2.38.833.832.567 1.906-1.022 4.138-3.528 4.954-14.085 13.963-19.004 16.216a1105.277 1105.277 0 0 0-10.596 4.95c-8.21 3.89-13.14 5.973-14.15 5.977-.468.002-4.225 1.387-8.35 3.079-9.313 3.819-13.826 5.352-21.57 7.33-6.21 1.585-31.325 9.833-34.93 11.47-11.95 5.428-14.528 7.045-19.55 12.263-4.145 4.308-5.852 6.979-6.749 10.56-3.83 15.3.701 26.136 11.66 27.888 4.12.66 12.388-.935 14.89-2.87 2.662-2.061 1.18 2.192-1.805 5.177-5.069 5.07-18.151 7.68-24.946 4.98zm430.242-18.53c-1.792-.884-4.629-3.462-6.303-5.728-7.276-9.688.482-50.078 4.576-60.121.712-1.65 2.015-4.748 2.895-6.883.909-2.207 5.16-7.389 9.845-12 6.303-6.206 9.455-8.53 13.38-9.867 6.76-2.305 8.212-2.218 12.58.75 4.873 3.311 6.44 3.162 10.482-1 1.87-1.925 4.278-3.5 5.351-3.5 1.658 0 1.952.705 1.952 4.679 0 4.467-1.231 9.814-3.122 13.557-.483.955-.878 2.743-.878 3.972 0 2.127-2.43 11.022-5.68 20.792-.823 2.475-2.206 9.557-3.074 15.737-2.077 14.794-1.389 16.723 5.722 16.04 5.692-.547 10.557-4.412 22.81-18.122 7.925-8.868 9.03-11.401 10.313-23.655 2.148-20.52 3.748-31.83 4.775-33.75 6.85-38.05 15.393-87.818 39.204-113.5 8.804-8.875 11.19-9.608 15.315-4.705 1.41 1.675 3.077 4.765 3.707 6.867 2.87 35.503-10.367 72.434-24.921 103.088-1.197 2.475-2.175 4.879-2.173 5.342 0 .463-.898 1.987-1.998 3.385-1.1 1.398-2 3.143-2 3.878 0 .734-2.25 4.651-5 8.705-2.75 4.053-5 7.821-5 8.374 0 .553-.9 1.82-2 2.816-1.1.995-2 2.227-2 2.736 0 .51-1.548 2.817-3.441 5.128-4.524 5.52-5.56 8.502-5.548 15.95.018 10.293.901 13.589 4.078 15.232 3.946 2.04 6.238 1.83 12.528-1.145 4.155-1.966 9.74-6.8 22.938-19.857 15.716-15.548 17.448-17.596 17.47-20.652.013-1.866.5-5.417 1.083-7.892.583-2.475 1.687-9.45 2.454-15.5 6.62-41.69 15.27-97.016 37.359-126.409 7.283-7.755 10.88-8.812 15.827-4.65 15.498 50.335-17.132 117.35-40.192 146.559-8.262 10.462-9.825 14.25-11.515 27.909-1.586 12.817-1.367 18.485.788 20.436 2.387 2.16 3.127 2.102 9.393-.736 3.866-1.75 8.471-5.616 17.21-14.447 6.562-6.63 12.3-11.828 12.75-11.55 1.367.845.881 4.652-1.172 9.176-2.162 4.764-18.458 21.488-26.696 27.397-2.826 2.027-7.422 4.364-10.215 5.193l-5.077 1.508-3.443-3.247c-1.893-1.785-3.749-4.468-4.124-5.962-.379-1.511.208-7.674 1.323-13.899 2.027-11.311 1.991-13.778-.2-13.778-1.209 0-9.332 6.995-23.686 20.397-16.113 15.044-24.124 20.603-29.692 20.603-6.764 0-9.36-3.188-10.175-12.49-.416-4.754-.9-6.063-2.345-6.337-1.241-.237-6.487 4.223-16.5 14.029-8.074 7.906-16.165 14.984-17.98 15.729-4.379 1.795-7.957-.028-10.124-5.16-2.376-5.624-3.933-5.595-9.295.172-6.058 6.515-11.313 10.057-14.92 10.057-1.573 0-2.86.45-2.86 1 0 1.36-.937 1.232-4.759-.652zm17.433-15.837c5.735-2.86 13.325-12.594 13.325-17.088 0-1.818.45-3.584 1-3.924.55-.34 1.005-2.28 1.011-4.31.01-2.03.73-5.94 1.609-8.69.879-2.75 1.943-8.15 2.365-12 .422-3.85 1.346-9.492 2.053-12.537 1.749-7.53.804-10.713-3.742-12.613-2.775-1.16-4.194-1.262-6.011-.434-1.308.596-3.172 1.084-4.142 1.084-.97 0-3.197 1.402-4.95 3.116-4.012 3.922-11.193 14.831-11.193 17.003 0 .9-.734 3.379-1.631 5.509-.898 2.13-1.822 5.447-2.054 7.372-.232 1.925-.852 4.625-1.378 6-.526 1.375-1.065 8.487-1.197 15.804-.237 13.14-.209 13.328 2.26 15.228 3.003 2.31 8.583 2.522 12.675.48zm82.534-68.847c2.635-4.303 4.791-8.277 4.791-8.832 0-.554 1.567-3.81 3.483-7.235 1.915-3.425 4.403-9.11 5.528-12.631 1.125-3.523 2.642-7.319 3.371-8.436.73-1.117 1.56-3.381 1.844-5.031.285-1.65 1.7-6.148 3.146-9.996 2.374-8.593 4.711-16.48 6.938-24.504 2.278-8.163 6.002-34.62 5.28-37.5-1.185-4.72-5.097-2.317-8.16 5.014-11.511 18.475-18.738 40.868-24.376 59.915-3.812 12.369-4.99 17.674-8.443 38.04-3.728 21.984-1.904 25.08 6.598 11.196zm63.603-11.704c12.684-17.167 21.816-39.12 27.188-57.461 6.167-21.433 7.832-53.014 2.954-56.029-2.796-1.728-6.857 3.722-12.316 16.529-.586 1.375-1.87 3.694-2.852 5.154-.982 1.46-1.786 3.988-1.786 5.619 0 1.63-1.294 6.736-2.876 11.345-1.582 4.61-3.84 12.657-5.019 17.882-2.47 10.958-3.942 16.55-5.209 19.797-.493 1.263-.9 3.963-.904 6-.01 2.036-.727 8.653-1.605 14.703-2.763 19.042-2.728 18.5-1.18 18.5.779 0 2.401-.918 3.605-2.04zm503.363 89.724c-2.251-2.395-2.926-7.103-1.175-8.185.55-.34 1-1.401 1-2.358 0-2.39 6.219-4.63 8.886-3.203 4.147 2.22 3.604 8.553-1.185 13.81-2.612 2.868-4.79 2.85-7.526-.064zm-57.682-7.527c-5.552-3.386-8.493-8.378-8.493-14.417 0-4.453.434-5.8 2.49-7.731 2.417-2.271 2.548-2.286 4.5-.52 1.384 1.253 2.015 3.096 2.025 5.915.02 5.5 1.841 8.764 5.983 10.724 3.626 1.716 4.04 1.738 7.956.428 3.735-1.25 4.896-2.88 6.538-9.188 1.756-6.741 1.883-12.264.41-17.87-1.862-7.08-2.96-12.869-3.506-18.5-.74-7.612-2.185-11-4.693-11-1.341 0-8.59 6.606-20.876 19.02-24.362 24.617-34.165 31.154-45.781 30.528-5.67-.306-8.75-2.255-15.864-10.04-5.35-5.852-10.332-16.752-12.228-26.75-.532-2.807-1.17-5.307-1.418-5.554-1.169-1.17-3.772 1.138-5.112 4.533-.818 2.07-2.147 4.958-2.955 6.418-.808 1.46-1.469 3.359-1.469 4.22 0 4.773-11.569 21.626-14.845 21.626-2.261 0-1.007-10.347 1.968-16.237.483-.955.877-2.275.877-2.934 0-.659.94-3.252 2.09-5.763 1.15-2.512 2.453-5.466 2.897-6.566.444-1.1 1.753-4.334 2.91-7.186 4.467-11.013 1.97-12.061-7.897-3.314-3.722 3.3-7.157 6.01-7.633 6.023-.477.013-2.57 1.558-4.654 3.435-3.247 2.925-6.375 4.942-18.815 12.13-1.036.6-2.674 1.766-3.64 2.593-3.947 3.377-16.937 8.7-22.848 9.36-5.715.64-6.212.525-8.08-1.85-1.763-2.24-1.897-3.316-1.173-9.361.45-3.757 1.221-7.955 1.715-9.33.493-1.375 1.477-4.525 2.186-7 .71-2.475 1.662-4.928 2.116-5.45.455-.523.826-1.7.826-2.617s.835-3.864 1.856-6.55c3.879-10.207 4.089-11.296 2.49-12.894-1.931-1.932-2.931-1.86-8.346.598-2.76 1.253-7.695 2.269-12.768 2.627-7.362.521-8.315.816-8.69 2.686-.23 1.155-.7 3.45-1.041 5.1-.342 1.65-1.036 5.89-1.543 9.424-.566 3.944-1.894 7.892-3.44 10.228-1.385 2.093-2.518 4.417-2.518 5.165 0 2.487-16.269 18.14-21.5 20.686-6.907 3.361-17.959 3.441-24.656.178-7.728-3.765-13.937-10.558-16.578-18.136-1.433-4.113-1.684-19.878-.37-23.248.493-1.264 1.487-4.322 2.21-6.797 1.649-5.648 6.83-16 8.01-16 .486 0 .884-.584.884-1.298 0-.714 2.478-3.898 5.506-7.074 8.882-9.318 10.947-12.379 9.514-14.104-.671-.81-2.863-1.721-4.87-2.027-2.007-.305-8.551-1.525-14.543-2.71l-10.893-2.156-2.357 2.74c-1.296 1.507-2.357 3.654-2.357 4.77 0 5.477-7.46 28.941-13.195 41.502-1.542 3.378-2.805 6.554-2.805 7.057 0 1.562-6.33 13.516-10.335 19.517-2.098 3.144-7.386 9.076-11.75 13.182-9.88 9.293-14.428 10.963-29.915 10.98-10.441.01-10.547-.014-19-4.356-9.536-4.9-19-13.665-19-17.598 0-1.27-.45-2.585-1-2.925-.567-.351-1-5.324-1-11.5s.433-11.15 1-11.5c.55-.34 1-1.498 1-2.573 0-4.135 8.136-16.236 13.31-19.796 7.618-5.242 17.945-6.566 28.123-3.608 5.01 1.456 9.567 4.534 9.567 6.459 0 1.698-4.162 3.824-6.833 3.491-21.22-2.64-24.971-1.554-31.164 9.027-2.181 3.727-2.871 6.533-4.604 18.726-.764 5.38.905 12.8 3.83 17.02 5.805 8.379 25.167 11.9 41.991 7.636 7.8-1.977 22.607-20.679 27.222-34.382.926-2.75 2.33-5.997 3.12-7.215.792-1.218 1.438-2.821 1.438-3.562 0-.741.9-3.21 2-5.487s2-4.81 2-5.629.4-1.737.89-2.039c.49-.302 1.13-2.016 1.423-3.809.721-4.409 2.497-12.03 4.457-19.13 1.533-5.555 1.524-5.942-.176-7.184-1.723-1.26-3.374-1.255-15.356.054-2.344.256-6.169 1.41-8.5 2.565-2.33 1.155-6.436 2.774-9.123 3.597-4.29 1.314-5.064 1.318-6.35.032-3.18-3.18 10.153-13.49 19.818-15.325 1.88-.357 4.013-1.119 4.74-1.692.728-.573 5.228-1.24 10-1.48 4.773-.241 9.384-.806 10.247-1.256 1.56-.813 2.7-3.872 5.012-13.44.664-2.75 2.042-6.403 3.063-8.118 1.02-1.715 1.855-3.84 1.855-4.723 0-1.672 1.555-5.379 8.244-19.66 3.403-7.263 5.409-9.917 13.799-18.25l9.818-9.75h6.01c3.307 0 6.284.441 6.617.98.978 1.583-1.172 4.618-4.367 6.166-5.173 2.505-22.12 19.829-22.12 22.611 0 1.235-5.725 12.326-7.068 13.694-.513.522-.933 2.026-.933 3.342 0 1.316-.9 3.537-2 4.935-1.1 1.398-2 3.355-2 4.349 0 .993-.45 2.084-1 2.424-.55.34-1 1.768-1 3.175 0 1.406-.747 4.66-1.66 7.232-2.158 6.075-1.288 9.873 2.426 10.591 1.504.291 5.434 1.23 8.734 2.086 12.594 3.269 30.27 6.54 31.559 5.838.307-.167 1.882.795 3.5 2.136l2.941 2.44-2.823 2.25c-4.956 3.952-22.677 21.038-22.677 21.866 0 .438-1.16 2.504-2.58 4.591-6.267 9.215-7.42 13.391-7.42 26.877 0 11.446.2 12.817 2.316 15.932 5 7.359 12.482 10.21 23.14 8.82 4.262-.556 5.628-1.347 9.75-5.646 2.637-2.75 4.794-5.75 4.794-6.667 0-.917 1.286-4.334 2.856-7.594 2.251-4.671 2.972-7.828 3.404-14.9l.547-8.971-5.403-5.192c-4.779-4.591-5.404-5.656-5.404-9.207 0-3.185.697-4.753 3.369-7.586 1.852-1.964 4.04-3.571 4.863-3.571 1.782 0 10.299 8.874 11.91 12.412.67 1.47 2.297 2.745 3.975 3.113 3.393.746 13.001-.25 17.883-1.853 8.016-2.631 20-12.364 20-16.242 0-1.718 4.571-16.44 6.498-20.93.709-1.65 1.737-4.8 2.285-7 .898-3.6 2.042-7.084 4.27-13 .414-1.1 1.764-4.7 3-8 1.235-3.3 3.583-8.7 5.216-12 1.633-3.3 3.462-7.125 4.064-8.5.603-1.375 1.899-3.695 2.881-5.155.983-1.46 1.786-3.302 1.786-4.095 0-.792.9-2.255 2-3.25 1.1-.996 2-2.458 2-3.25 0-4.485 21.35-26.25 25.748-26.25.539 0 2.166 1.186 3.616 2.636 2.519 2.519 2.636 3.112 2.636 13.3 0 5.865-.402 11.091-.894 11.614-.492.522-1.359 2.975-1.925 5.45-1.36 5.934-3.28 10.976-5.431 14.26-.962 1.468-1.75 3.122-1.75 3.674 0 .553-.9 2.607-2 4.566-1.1 1.958-2 4.11-2 4.78 0 .671-2.25 4.731-5 9.023s-5 8.16-5 8.595c0 .436-.9 1.606-2 2.602-1.1.995-2 2.403-2 3.13 0 1.794-10.13 13.525-23.46 27.167-7.28 7.45-11.32 12.388-11.86 14.5a9450.07 9450.07 0 0 0-1.842 7.203c-.56 2.2-1.879 5.924-2.929 8.277-1.05 2.352-1.909 5.3-1.909 6.55s-.441 2.714-.981 3.254-1.765 5.576-2.724 11.19c-1.635 9.583-1.638 10.314-.054 11.899 1.505 1.504 2.41 1.556 8.3.47 3.636-.67 8.258-2.1 10.27-3.179 2.013-1.079 4.05-1.961 4.53-1.961.478 0 2.87-1.35 5.314-3 2.445-1.65 4.69-3 4.99-3 .298 0 3.147-1.98 6.33-4.402 3.184-2.42 6.854-4.965 8.157-5.654 2.528-1.338 15.143-11.939 15.701-13.194.184-.413.936-.75 1.672-.75 1.75 0 8.495-7.897 8.495-9.944 0-.872.942-4.053 2.093-7.07 1.15-3.018 3.186-8.394 4.523-11.947 1.337-3.554 3.095-7.476 3.907-8.715.813-1.24 1.477-3.011 1.477-3.936 0-2.04 3.99-13.51 5.162-14.838.46-.523.838-1.782.838-2.799 0-1.016.9-3.71 2-5.987s2-4.73 2-5.45c0-.72 1.28-4.123 2.844-7.562 1.564-3.439 3.659-8.167 4.654-10.508.996-2.34 2.416-4.758 3.157-5.372.74-.615 1.345-1.924 1.345-2.91 0-2.339 9.05-15.837 14.81-22.09 4.977-5.403 12.617-10.872 15.187-10.872.91 0 2.633 1.041 3.829 2.314 2.448 2.607 3.005 10.372 1.102 15.37-.59 1.549-1.498 5.06-2.02 7.805-1.36 7.165-6.612 20.322-11.78 29.51-.464.826-1.656 3.076-2.65 5-.992 1.926-3.194 5.279-4.891 7.452-1.698 2.173-3.537 4.742-4.087 5.708-2.418 4.248-9.35 13.75-13.381 18.34-5.48 6.243-11.119 14.533-11.119 16.347 0 1.038.913 1.21 3.75.704 14.065-2.509 17.567-1.661 23.612 5.716 4.322 5.275 5.638 8.582 5.638 14.174 0 8.06-1.098 10.697-6.992 16.796-4.77 4.934-6.595 6.107-11.508 7.39-3.344.873-8.652 1.386-12.42 1.2-6.313-.313-6.594-.228-6.923 2.103-.502 3.552 7.062 17.767 12.344 23.2 6.232 6.41 9.17 7.486 16.159 5.922 4.594-1.028 6.85-2.397 13.19-8.009 4.208-3.723 10.322-9.643 13.587-13.156a1915.84 1915.84 0 0 1 12.225-12.998c3.458-3.636 7.907-9.019 9.887-11.961 6.811-10.122 19.062-21.927 22.753-21.927 2.822 0 5.698 2.846 5.698 5.638 0 1.09-2.008 4.333-4.462 7.208-2.62 3.071-4.738 6.703-5.133 8.807-.628 3.352.704 12.335 2.5 16.847 5.8 14.572 6.341 25.21 1.946 38.222-2.273 6.729-7.824 13.557-12.452 15.316-4.364 1.66-14.565 1.158-17.907-.88zm-53.195-64.51c1.779-.742 4.69-3.008 6.468-5.034 2.561-2.917 3.231-4.561 3.22-7.899-.02-5.791-1.834-8.881-6.513-11.095-3.583-1.696-4.61-1.758-10.473-.636-5.725 1.096-7.127 1.854-11.767 6.363-9.278 9.017-9.005 15.781.767 19 3.18 1.048 15.218.589 18.298-.698zm-80.298-51.93c2.032-1.65 9.903-12.285 10.707-14.465.356-.964 1.768-3.246 3.14-5.07 1.372-1.825 3.457-5.2 4.634-7.5 1.177-2.301 2.641-5.083 3.253-6.183 1.092-1.962 5.125-10.59 9.114-19.5 1.108-2.475 2.757-6.975 3.664-10 .907-3.025 2.063-6.534 2.569-7.797 1.38-3.45 1.11-8.193-.502-8.812-1.65-.633-5.579 1.227-5.579 2.642 0 .529-1.575 3.154-3.5 5.834-1.925 2.68-3.5 5.19-3.5 5.577 0 .388-2.025 3.836-4.5 7.662s-4.51 7.505-4.522 8.175c-.012.67-.902 2.344-1.978 3.719-1.075 1.375-1.965 3.197-1.977 4.05-.012.852-.398 1.977-.857 2.5-.46.522-1.646 3.2-2.638 5.95-2.952 8.187-8.588 22.852-9.608 25-3.614 7.61-2.515 11.95 2.08 8.218zm77.522-7.752c1.4-2.219 3.24-4.806 4.086-5.75 3.434-3.826 14.26-19.222 14.871-21.15.361-1.137 1.076-2.066 1.589-2.066.513 0 .932-1.035.932-2.3s.423-2.728.94-3.25c1.096-1.11 6.932-16.445 8.077-21.224 1.855-7.75-2.094-9.577-7.632-3.53-1.861 2.032-3.385 4.088-3.385 4.57 0 .48-1.288 2.755-2.863 5.054-1.574 2.299-3.167 5.152-3.538 6.34-.372 1.187-1.334 2.705-2.137 3.372-.804.667-1.462 2.031-1.462 3.031 0 1.699-2.46 7.325-12.1 27.667-4.298 9.071-4.78 11.893-2.15 12.58.963.252 1.857.51 1.988.574.13.064 1.383-1.7 2.784-3.918zm127.483 92.65c0-3.845 1.698-11.185 3.042-13.116.382-.55 1.289-3.363 2.014-6.25.724-2.888 1.682-5.25 2.128-5.25.446 0 .813-1.238.815-2.75 0-1.513.902-4.224 2-6.024 1.098-1.801 1.996-4.019 1.996-4.928 0-.91 1.4-6.186 3.11-11.726 3.205-10.376 3.864-12.297 5.69-16.572.588-1.375 1.61-4.3 2.273-6.5.662-2.2 1.56-4.9 1.996-6 .436-1.1 1.306-3.681 1.935-5.736.628-2.055 1.56-3.994 2.07-4.31.51-.314.926-1.79.926-3.278s.9-4.385 2-6.437c1.1-2.053 2-4.544 2-5.536s.38-2.23.844-2.753c.465-.523 1.866-3.65 3.115-6.95 1.25-3.3 3.12-7.908 4.156-10.24 1.037-2.33 1.885-4.693 1.885-5.25 0-.555.45-1.01 1-1.01s1-.846 1-1.88c0-2.468 7.468-10.12 9.877-10.12 5.983 0 4.794 7.768-4.363 28.5-.729 1.65-2.101 5.13-3.05 7.736-.948 2.604-2.34 5.247-3.094 5.872-.753.625-1.37 1.988-1.37 3.028s-.379 2.672-.842 3.627c-.463.955-1.848 3.987-3.078 6.737a716.8 716.8 0 0 1-4.106 9c-1.028 2.2-2.615 6.346-3.525 9.213-.91 2.867-2.283 5.735-3.052 6.372-.768.638-1.397 2.203-1.397 3.478 0 1.275-.45 2.597-1 2.937-.55.34-1 1.258-1 2.04 0 .781-1.732 5.142-3.85 9.69-2.117 4.549-4.454 9.845-5.193 11.77-.739 1.925-2.156 4.976-3.15 6.78-.994 1.804-1.807 3.948-1.807 4.764 0 .816-.398 2.264-.886 3.22-1.316 2.58-4.925 11.442-5.593 13.736-.32 1.1-1.691 3.35-3.047 5l-2.464 3v-3.884zm-760.005-85.27c0-2.98-.737-4.334-4-7.346-4.798-4.43-5.058-7.096-1.077-11.077 3.603-3.602 6.021-3.683 10-.334 2.809 2.362 3.077 3.114 3.077 8.606 0 5.214-.411 6.537-3.084 9.91-1.696 2.143-3.496 3.895-4 3.895-.503 0-.916-1.644-.916-3.654zm375-50.65c-1.375-.644-3.372-1.963-4.438-2.933-1.066-.97-2.271-1.763-2.678-1.763-.406 0-2.346-2.647-4.311-5.881-3.315-5.457-3.573-6.462-3.573-13.941 0-4.433.392-8.302.871-8.598.48-.296 1.138-1.873 1.464-3.504.8-3.997 11.712-14.936 15.694-15.732 1.657-.331 3.255-.994 3.551-1.473.296-.48 1.547-.871 2.78-.871 1.232 0 2.668-.397 3.19-.883 1.911-1.776 17.638-3.155 46.95-4.12 16.5-.542 34.05-1.43 39-1.974 4.95-.543 11.594-.996 14.764-1.005 3.17-.01 6.545-.415 7.5-.9.955-.485 3.88-1.385 6.5-2 8.77-2.058 9.595-1.304 4.691 4.28-3.314 3.775-11.485 7.014-20.455 8.107-2.75.335-7.048 1.057-9.55 1.604-2.504.547-20.28 1.143-39.5 1.324-48.503.456-49.142.564-58.148 9.76-5.798 5.92-8.079 11.852-6.924 18.009.797 4.245 7.95 11.798 11.175 11.798 2.383 0 7.447 4.861 7.447 7.15 0 4.333-9.713 6.485-16 3.545z" style="fill:#fff" transform="translate(-986.31 48.614) scale(.81246)"/></svg>
